<svg xmlns="http://www.w3.org/2000/svg" xmlns:xlink="http://www.w3.org/1999/xlink" width="400" height="255" viewBox="0 0 400 255">
  <defs>
    <clipPath id="clip-path">
      <rect id="Rectángulo_401970" data-name="Rectángulo 401970" width="400" height="255" transform="translate(1020 524)" fill="#3a1d71" stroke="#707070" stroke-width="1" opacity="0.44"/>
    </clipPath>
    <clipPath id="clip-path-2">
      <rect id="Rectángulo_401121" data-name="Rectángulo 401121" width="84" height="63" transform="translate(571.77 162.262)" fill="#3a1d71" stroke="#707070" stroke-width="1"/>
    </clipPath>
    <clipPath id="clip-path-3">
      <rect id="Rectángulo_388582" data-name="Rectángulo 388582" width="32.014" height="30.652" transform="translate(0 0)" fill="none"/>
    </clipPath>
    <clipPath id="clip-path-4">
      <rect id="Rectángulo_388583" data-name="Rectángulo 388583" width="35.563" height="34.05" fill="none"/>
    </clipPath>
    <clipPath id="clip-path-5">
      <rect id="Rectángulo_388584" data-name="Rectángulo 388584" width="37.151" height="35.571" fill="none"/>
    </clipPath>
    <clipPath id="clip-path-6">
      <rect id="Rectángulo_388585" data-name="Rectángulo 388585" width="32.014" height="30.651" fill="none"/>
    </clipPath>
  </defs>
  <g id="Enmascarar_grupo_1098691" data-name="Enmascarar grupo 1098691" transform="translate(-1020 -524)" clip-path="url(#clip-path)">
    <g id="Grupo_1098903" data-name="Grupo 1098903">
      <g id="Grupo_1098902" data-name="Grupo 1098902">
        <g id="OBJECTS" transform="translate(516.23 419.738)">
          <path id="Trazado_873223" data-name="Trazado 873223" d="M533.04,356.77s-42.06-61.74-17.29-95.03,61.94-39.48,102.97-72.77,103.67-63.24,147.8-59.37,29.42,49.55,34.84,59.61,31.04,22.21,54.26,44.66,30.19,75.87,6.19,122.71l-328.77.19Z" fill="#bbadff"/>
          <g id="Grupo_1098880" data-name="Grupo 1098880">
            <path id="Trazado_873224" data-name="Trazado 873224" d="M873.43,311.15H856.79a.248.248,0,0,1-.25-.25v-5.55a.248.248,0,0,1,.25-.25h16.64a.248.248,0,0,1,.25.25v5.55A.248.248,0,0,1,873.43,311.15Zm-16.4-.5h16.14V305.6H857.03Z" fill="#fff"/>
            <path id="Trazado_873225" data-name="Trazado 873225" d="M863.68,301.41H847.04a.248.248,0,0,1-.25-.25v-5.55a.248.248,0,0,1,.25-.25h16.64a.248.248,0,0,1,.25.25v5.55A.248.248,0,0,1,863.68,301.41Zm-16.39-.5h16.14v-5.05H847.29Z" fill="#fff"/>
            <path id="Trazado_873226" data-name="Trazado 873226" d="M734.46,305.56H717.82a.248.248,0,0,1-.25-.25v-5.55a.248.248,0,0,1,.25-.25h16.64a.248.248,0,0,1,.25.25v5.55A.248.248,0,0,1,734.46,305.56Zm-16.39-.5h16.14v-5.05H718.07Z" fill="#fff"/>
            <path id="Trazado_873227" data-name="Trazado 873227" d="M763.75,156.18H747.11a.248.248,0,0,1-.25-.25v-5.55a.248.248,0,0,1,.25-.25h16.64a.248.248,0,0,1,.25.25v5.55A.248.248,0,0,1,763.75,156.18Zm-16.4-.5h16.14v-5.05H747.35Z" fill="#fff"/>
            <path id="Trazado_873228" data-name="Trazado 873228" d="M568.89,246.57H552.25a.248.248,0,0,1-.25-.25v-5.55a.248.248,0,0,1,.25-.25h16.64a.248.248,0,0,1,.25.25v5.55A.248.248,0,0,1,568.89,246.57Zm-16.39-.5h16.14v-5.05H552.5Z" fill="#fff"/>
            <path id="Trazado_873229" data-name="Trazado 873229" d="M568.89,288.46H552.25a.248.248,0,0,1-.25-.25v-5.55a.248.248,0,0,1,.25-.25h16.64a.248.248,0,0,1,.25.25v5.55A.248.248,0,0,1,568.89,288.46Zm-16.39-.5h16.14v-5.05H552.5Z" fill="#fff"/>
            <path id="Trazado_873230" data-name="Trazado 873230" d="M520.66,323.54H504.02a.248.248,0,0,1-.25-.25v-5.55a.248.248,0,0,1,.25-.25h16.64a.248.248,0,0,1,.25.25v5.55A.248.248,0,0,1,520.66,323.54Zm-16.39-.5h16.14v-5.05H504.27v5.05Z" fill="#fff"/>
          </g>
          <g id="Grupo_1098881" data-name="Grupo 1098881">
            <path id="Trazado_873231" data-name="Trazado 873231" d="M553.05,356.77s-16.12-18.72-18.51-49.14,1.48-50.15,1.48-50.15,18.56,14.32,32.12,49.65c0,0,6.55,16.27,8.7,30.83,0,0,7.76-27.05,29.05-40.6,0,0,7.55,30.19-8.42,59.23l-44.42.19Z" fill="#0eb259"/>
            <path id="Trazado_873232" data-name="Trazado 873232" d="M561.06,296.03a.484.484,0,0,0-.18-.39c-12.52-26.46-27.31-38.99-27.52-39.17-.01,0-.02,0-.04-.02a.459.459,0,0,0-.16-.07c-.02,0-.04-.02-.07-.02a.82.82,0,0,0-.22.02h0c-.01,0-.02.02-.03.02a.907.907,0,0,0-.16.11.174.174,0,0,0-.04.05.363.363,0,0,0-.07.17c0,.01-.01.02-.02.03a182.674,182.674,0,0,0-1.57,48.53c0,.02-.02.04-.03.07a.485.485,0,0,0,.08.39c3.94,34.75,18.22,51.12,18.42,51.34a.5.5,0,0,0,.37.17.46.46,0,0,0,.33-.13.5.5,0,0,0,.04-.71c-.2-.22-14.15-16.24-18.12-50.3l18.39,4.07,15.65,46.53a.5.5,0,0,0,.47.34.3.3,0,0,0,.16-.03.5.5,0,0,0,.31-.63l-8.39-24.94,6.53-23.1a180.136,180.136,0,0,1,8.3,29.67.5.5,0,1,0,.98-.19,174.921,174.921,0,0,0-13.42-41.82Zm-1.04.12-6.04,21.37-19.85-59c3.97,3.77,15.68,16.02,25.89,37.63Zm-28.06,8.94A180.792,180.792,0,0,1,533.23,259l16.86,50.1Zm26.15,24.71-3.56-10.6,6.13-21.67c1.35,2.93,2.66,6.04,3.93,9.3l-6.49,22.97Z" fill="#251c4a"/>
            <path id="Trazado_873233" data-name="Trazado 873233" d="M601.19,342.31a92.582,92.582,0,0,0,2.54-45.35c0-.01-.01-.02-.02-.04a.425.425,0,0,0-.06-.14.21.21,0,0,0-.04-.06.641.641,0,0,0-.13-.1c-.01,0-.02-.02-.04-.03h0a.522.522,0,0,0-.21-.04h-.04a.337.337,0,0,0-.17.05H603c-.17.1-9.77,5.81-18.6,18.87a.492.492,0,0,0-.27.41c-1.31,1.96-2.59,4.08-3.82,6.36a.5.5,0,0,0-.22.41,88.558,88.558,0,0,0-9.85,34.05.5.5,0,0,0,.45.54.49.49,0,0,0,.54-.45,87.941,87.941,0,0,1,9.35-32.96l5.95,13.02-8,19.7a.5.5,0,0,0,.28.65.406.406,0,0,0,.19.04.5.5,0,0,0,.46-.31l4.7-11.58,15.79-2.4a71.633,71.633,0,0,1-5.74,13.53.5.5,0,0,0,.17.69.485.485,0,0,0,.26.07.52.52,0,0,0,.43-.24,74.892,74.892,0,0,0,6.03-14.36.5.5,0,0,0,.11-.36Zm-20.04-19.56c1.1-2.03,2.23-3.94,3.39-5.7l3.65,8.25a.5.5,0,0,0,.46.3.448.448,0,0,0,.2-.04.494.494,0,0,0,.25-.66l-3.91-8.83a68.2,68.2,0,0,1,16.97-17.7l-15.13,37.25-5.88-12.86Zm3.43,21.55,18.47-45.45a91.812,91.812,0,0,1-2.78,43.07l-15.69,2.39Z" fill="#251c4a"/>
            <path id="Trazado_873234" data-name="Trazado 873234" d="M552.94,346.31a2.35,2.35,0,1,1,2.35-2.35A2.354,2.354,0,0,1,552.94,346.31Zm0-4.19a1.85,1.85,0,1,0,1.85,1.85A1.852,1.852,0,0,0,552.94,342.12Z" fill="#fff"/>
            <path id="Trazado_873235" data-name="Trazado 873235" d="M597.71,331.58a1.31,1.31,0,1,1,1.3-1.31A1.315,1.315,0,0,1,597.71,331.58Zm0-2.11a.81.81,0,0,0,0,1.62.81.81,0,0,0,0-1.62Z" fill="#fff"/>
            <path id="Trazado_873236" data-name="Trazado 873236" d="M553.8,299.41a1.81,1.81,0,1,1,1.81-1.81A1.81,1.81,0,0,1,553.8,299.41Zm0-3.12a1.31,1.31,0,1,0,1.31,1.31A1.315,1.315,0,0,0,553.8,296.29Z" fill="#fff"/>
          </g>
          <g id="Grupo_1098885" data-name="Grupo 1098885">
            <rect id="Rectángulo_401108" data-name="Rectángulo 401108" width="136" height="81.65" transform="translate(626.07 170.3)" fill="#fff"/>
            <rect id="Rectángulo_401109" data-name="Rectángulo 401109" width="136.26" height="8.77" transform="translate(625.81 170.3)" fill="#7c60ff"/>
            <path id="Trazado_873318" data-name="Trazado 873318" d="M0,0H41.03V26.71H0Z" transform="translate(641.75 183.74)" fill="#f5c59d"/>
            <rect id="Rectángulo_401111" data-name="Rectángulo 401111" width="41.23" height="26.48" transform="translate(641.55 215.28)" fill="#f5c59d"/>
            <g id="Grupo_1098882" data-name="Grupo 1098882">
              <path id="Trazado_873239" data-name="Trazado 873239" d="M748.3,173.94h-3.39a.248.248,0,0,1-.25-.25V170.3a.248.248,0,0,1,.25-.25h3.39a.248.248,0,0,1,.25.25v3.39A.248.248,0,0,1,748.3,173.94Zm-3.14-.5h2.89v-2.89h-2.89Z" fill="#fff"/>
              <path id="Trazado_873240" data-name="Trazado 873240" d="M753.74,171.99l1.52-1.52a.242.242,0,0,0,0-.35.25.25,0,0,0-.35,0l-1.52,1.52-1.52-1.52a.247.247,0,0,0-.35.35l1.52,1.52-1.52,1.52a.251.251,0,0,0,.36.35l1.52-1.52,1.52,1.52a.464.464,0,0,0,.18.07.245.245,0,0,0,.18-.42l-1.52-1.52Z" fill="#fff"/>
              <path id="Trazado_873241" data-name="Trazado 873241" d="M741.43,173.94h-3.48a.25.25,0,0,1,0-.5h3.48a.25.25,0,0,1,0,.5Z" fill="#fff"/>
            </g>
            <g id="Grupo_1098884" data-name="Grupo 1098884">
              <path id="Trazado_873242" data-name="Trazado 873242" d="M758.84,167.3h-136a.5.5,0,0,0-.5.5v81.64a.5.5,0,0,0,.5.5h136a.5.5,0,0,0,.5-.5V167.8A.5.5,0,0,0,758.84,167.3Zm-.5,1v7.77h-135V168.3Zm-135,80.65V177.08h135v71.87h-135Z" fill="#251c4a"/>
              <path id="Trazado_873248" data-name="Trazado 873248" d="M682.78,210.85H641.55a.5.5,0,0,1-.5-.5V183.54a.5.5,0,0,1,.5-.5h41.23a.5.5,0,0,1,.5.5v26.81A.5.5,0,0,1,682.78,210.85Zm-40.73-1h40.23V184.04H642.05Z" fill="#251c4a"/>
              <path id="Trazado_873249" data-name="Trazado 873249" d="M682.78,242.61H641.55a.5.5,0,0,1-.5-.5V215.3a.5.5,0,0,1,.5-.5h41.23a.5.5,0,0,1,.5.5v26.81A.5.5,0,0,1,682.78,242.61Zm-40.73-1h40.23V215.8H642.05Z" fill="#251c4a"/>
            </g>
            <g id="Grupo_1098899" data-name="Grupo 1098899" transform="translate(686.332 191.009)">
              <path id="Trazado_873124" data-name="Trazado 873124" d="M645.3,302.8l-4.666,4.942,4.666,3.3" transform="translate(-582.24 -300.122)" fill="none" stroke="#0464f4" stroke-linecap="round" stroke-linejoin="round" stroke-width="1"/>
              <path id="Trazado_873125" data-name="Trazado 873125" d="M641.116,302.8l-4.666,4.942,4.666,3.3" transform="translate(-581.907 -300.122)" fill="none" stroke="#0464f4" stroke-linecap="round" stroke-linejoin="round" stroke-width="1"/>
              <path id="Trazado_873126" data-name="Trazado 873126" d="M627.79,306.947c0,2.126,1.1,3.847,2.475,3.847s2.476-1.721,2.476-3.847-1.1-3.847-2.476-3.847S627.79,304.821,627.79,306.947Z" transform="translate(-581.217 -300.146)" fill="none" stroke="#ff4440" stroke-linecap="round" stroke-linejoin="round" stroke-width="1"/>
              <line id="Línea_568" data-name="Línea 568" y2="7.693" transform="translate(40.803 2.954)" fill="none" stroke="#0464f4" stroke-linecap="round" stroke-linejoin="round" stroke-width="1"/>
              <rect id="Rectángulo_401077" data-name="Rectángulo 401077" width="4.399" height="7.141" transform="translate(32.843 3.23)" fill="#e3dfeb"/>
              <rect id="Rectángulo_401078" data-name="Rectángulo 401078" width="6.589" height="7.141" transform="translate(22.95 3.23)" fill="none" stroke="#ff4440" stroke-linecap="round" stroke-linejoin="round" stroke-width="1"/>
              <rect id="Rectángulo_401079" data-name="Rectángulo 401079" width="7.417" height="7.141" transform="translate(12.505 3.23)" fill="#e3dfeb"/>
              <path id="Trazado_873127" data-name="Trazado 873127" d="M585.12,299.936c-.939-.276-1.8.745-1.9,1.721a18.307,18.307,0,0,0,.341,2.9c.064.975-.359,2.135-1.316,2.337a1.081,1.081,0,0,1,1.261.791,3.974,3.974,0,0,1,0,1.647,4.573,4.573,0,0,0,.515,3.11,2.144,2.144,0,0,0,2.807.764" transform="translate(-577.584 -299.89)" fill="none" stroke="#000" stroke-linecap="round" stroke-linejoin="round" stroke-width="1"/>
              <path id="Trazado_873128" data-name="Trazado 873128" d="M578.45,300.41a16.642,16.642,0,0,0-.046,12.635" transform="translate(-577.181 -299.932)" fill="none" stroke="#000" stroke-linecap="round" stroke-linejoin="round" stroke-width="1"/>
              <path id="Trazado_873129" data-name="Trazado 873129" d="M650.762,299.936c.939-.276,1.8.745,1.905,1.721a18.314,18.314,0,0,1-.341,2.9c-.065.975.359,2.135,1.316,2.337a1.081,1.081,0,0,0-1.261.791,3.975,3.975,0,0,0,0,1.647,4.573,4.573,0,0,1-.515,3.11,2.144,2.144,0,0,1-2.807.764" transform="translate(-582.913 -299.89)" fill="none" stroke="#000" stroke-linecap="round" stroke-linejoin="round" stroke-width="1"/>
            </g>
            <g id="Grupo_1098900" data-name="Grupo 1098900" transform="translate(686.332 219.009)">
              <path id="Trazado_873124-2" data-name="Trazado 873124" d="M645.3,302.8l-4.666,4.942,4.666,3.3" transform="translate(-582.24 -300.122)" fill="none" stroke="#0464f4" stroke-linecap="round" stroke-linejoin="round" stroke-width="1"/>
              <path id="Trazado_873125-2" data-name="Trazado 873125" d="M641.116,302.8l-4.666,4.942,4.666,3.3" transform="translate(-581.907 -300.122)" fill="none" stroke="#0464f4" stroke-linecap="round" stroke-linejoin="round" stroke-width="1"/>
              <path id="Trazado_873126-2" data-name="Trazado 873126" d="M627.79,306.947c0,2.126,1.1,3.847,2.475,3.847s2.476-1.721,2.476-3.847-1.1-3.847-2.476-3.847S627.79,304.821,627.79,306.947Z" transform="translate(-581.217 -300.146)" fill="none" stroke="#ff4440" stroke-linecap="round" stroke-linejoin="round" stroke-width="1"/>
              <line id="Línea_568-2" data-name="Línea 568" y2="7.693" transform="translate(40.803 2.954)" fill="none" stroke="#0464f4" stroke-linecap="round" stroke-linejoin="round" stroke-width="1"/>
              <rect id="Rectángulo_401077-2" data-name="Rectángulo 401077" width="4.399" height="7.141" transform="translate(32.843 3.23)" fill="#e3dfeb"/>
              <rect id="Rectángulo_401078-2" data-name="Rectángulo 401078" width="6.589" height="7.141" transform="translate(22.95 3.23)" fill="none" stroke="#ff4440" stroke-linecap="round" stroke-linejoin="round" stroke-width="1"/>
              <rect id="Rectángulo_401079-2" data-name="Rectángulo 401079" width="7.417" height="7.141" transform="translate(12.505 3.23)" fill="#e3dfeb"/>
              <path id="Trazado_873127-2" data-name="Trazado 873127" d="M585.12,299.936c-.939-.276-1.8.745-1.9,1.721a18.307,18.307,0,0,0,.341,2.9c.064.975-.359,2.135-1.316,2.337a1.081,1.081,0,0,1,1.261.791,3.974,3.974,0,0,1,0,1.647,4.573,4.573,0,0,0,.515,3.11,2.144,2.144,0,0,0,2.807.764" transform="translate(-577.584 -299.89)" fill="none" stroke="#000" stroke-linecap="round" stroke-linejoin="round" stroke-width="1"/>
              <path id="Trazado_873128-2" data-name="Trazado 873128" d="M578.45,300.41a16.642,16.642,0,0,0-.046,12.635" transform="translate(-577.181 -299.932)" fill="none" stroke="#000" stroke-linecap="round" stroke-linejoin="round" stroke-width="1"/>
              <path id="Trazado_873129-2" data-name="Trazado 873129" d="M650.762,299.936c.939-.276,1.8.745,1.905,1.721a18.314,18.314,0,0,1-.341,2.9c-.065.975.359,2.135,1.316,2.337a1.081,1.081,0,0,0-1.261.791,3.975,3.975,0,0,0,0,1.647,4.573,4.573,0,0,1-.515,3.11,2.144,2.144,0,0,1-2.807.764" transform="translate(-582.913 -299.89)" fill="none" stroke="#000" stroke-linecap="round" stroke-linejoin="round" stroke-width="1"/>
            </g>
            <text id="C_" data-name="C++" transform="translate(646.77 235.262)" fill="#12263f" font-size="16" font-family="Montserrat-Bold, Montserrat" font-weight="700"><tspan x="0" y="0" letter-spacing="-0.005em">C</tspan><tspan y="0" letter-spacing="0.005em">+</tspan><tspan y="0">+</tspan></text>
            <text id="_" data-name="&lt;/&gt;" transform="matrix(-1, 0, 0, 1, 677.77, 204.262)" fill="#12263f" font-size="17" font-family="Montserrat-Regular, Montserrat"><tspan x="0" y="0">&lt;/&gt;</tspan></text>
          </g>
          <g id="Grupo_1098886" data-name="Grupo 1098886" transform="translate(-11 -10)">
            <rect id="Rectángulo_401112" data-name="Rectángulo 401112" width="89.78" height="73.29" transform="translate(569.09 157.54)" fill="#ffc7ec"/>
            <path id="Trazado_873252" data-name="Trazado 873252" d="M657.28,229.72H567.64a.5.5,0,0,1-.5-.5V155.93a.5.5,0,0,1,.5-.5h89.64a.5.5,0,0,1,.5.5v73.29A.5.5,0,0,1,657.28,229.72Zm-89.14-1h88.64V156.43H568.14Z" fill="#251c4a"/>
            <g id="Enmascarar_grupo_1098648" data-name="Enmascarar grupo 1098648" clip-path="url(#clip-path-2)">
              <g id="Grupo_1098773" data-name="Grupo 1098773" transform="translate(572.177 165.203)">
                <rect id="Rectángulo_401002" data-name="Rectángulo 401002" width="23.36" height="3.425" fill="#3a1d71"/>
                <rect id="Rectángulo_401003" data-name="Rectángulo 401003" width="39.22" height="3.425" transform="translate(27.679)" fill="#3a1d71"/>
                <rect id="Rectángulo_401004" data-name="Rectángulo 401004" width="45.858" height="3.425" transform="translate(71.515)" fill="#3a1d71"/>
                <rect id="Rectángulo_401005" data-name="Rectángulo 401005" width="17.594" height="3.425" transform="translate(122.277)" fill="#3a1d71"/>
                <rect id="Rectángulo_401006" data-name="Rectángulo 401006" width="5.478" height="3.425" transform="translate(63.729 8.435)" fill="#3a1d71"/>
                <rect id="Rectángulo_401007" data-name="Rectángulo 401007" width="2.596" height="3.425" transform="translate(79.589 8.435)" fill="#3a1d71"/>
                <rect id="Rectángulo_401008" data-name="Rectángulo 401008" width="42.103" height="3.425" transform="translate(84.493 8.435)" fill="#3a1d71"/>
                <rect id="Rectángulo_401009" data-name="Rectángulo 401009" width="12.361" height="3.425" transform="translate(131.787 8.435)" fill="#3a1d71"/>
                <rect id="Rectángulo_401010" data-name="Rectángulo 401010" width="4.904" height="3.425" transform="translate(71.515 8.435)" fill="#3a1d71"/>
                <rect id="Rectángulo_401011" data-name="Rectángulo 401011" width="22.498" height="3.425" transform="translate(39.507 8.435)" fill="#3a1d71"/>
                <rect id="Rectángulo_401012" data-name="Rectángulo 401012" width="29.412" height="3.425" transform="translate(7.499 8.435)" fill="#3a1d71"/>
                <rect id="Rectángulo_401013" data-name="Rectángulo 401013" width="4.904" height="3.425" transform="translate(0 8.435)" fill="#3a1d71"/>
                <rect id="Rectángulo_401014" data-name="Rectángulo 401014" width="4.329" height="3.425" transform="translate(0 16.882)" fill="#3a1d71"/>
                <rect id="Rectángulo_401015" data-name="Rectángulo 401015" width="42.39" height="3.425" transform="translate(8.074 16.882)" fill="#3a1d71"/>
                <rect id="Rectángulo_401016" data-name="Rectángulo 401016" width="66.909" height="3.425" transform="translate(55.081 16.882)" fill="#3a1d71"/>
                <rect id="Rectángulo_401017" data-name="Rectángulo 401017" width="19.86" height="3.425" transform="translate(124.298 16.882)" fill="#3a1d71"/>
                <rect id="Rectángulo_401018" data-name="Rectángulo 401018" width="51.336" height="3.425" transform="translate(87.961 25.317)" fill="#3a1d71"/>
                <rect id="Rectángulo_401019" data-name="Rectángulo 401019" width="8.074" height="3.425" transform="translate(0 25.317)" fill="#3a1d71"/>
                <rect id="Rectángulo_401120" data-name="Rectángulo 401120" width="8.074" height="3.425" transform="translate(0 51.317)" fill="#3a1d71"/>
                <rect id="Rectángulo_401020" data-name="Rectángulo 401020" width="40.38" height="3.425" transform="translate(11.531 25.317)" fill="#3a1d71"/>
                <rect id="Rectángulo_401119" data-name="Rectángulo 401119" width="40.38" height="3.425" transform="translate(11.531 51.317)" fill="#3a1d71"/>
                <rect id="Rectángulo_401021" data-name="Rectángulo 401021" width="26.243" height="3.425" transform="translate(54.506 25.317)" fill="#3a1d71"/>
                <rect id="Rectángulo_401118" data-name="Rectángulo 401118" width="26.243" height="3.425" transform="translate(54.506 51.317)" fill="#3a1d71"/>
                <rect id="Rectángulo_401022" data-name="Rectángulo 401022" width="7.787" height="3.425" transform="translate(27.679 33.763)" fill="#3a1d71"/>
                <rect id="Rectángulo_401023" data-name="Rectángulo 401023" width="24.221" height="3.425" transform="translate(0 33.763)" fill="#3a1d71"/>
                <rect id="Rectángulo_401024" data-name="Rectángulo 401024" width="7.212" height="3.425" transform="translate(38.348 33.763)" fill="#3a1d71"/>
                <rect id="Rectángulo_401025" data-name="Rectángulo 401025" width="32.593" height="3.425" transform="translate(48.443 33.763)" fill="#3a1d71"/>
                <rect id="Rectángulo_401026" data-name="Rectángulo 401026" width="14.712" height="3.425" transform="translate(85.652 33.763)" fill="#3a1d71"/>
                <rect id="Rectángulo_401027" data-name="Rectángulo 401027" width="14.999" height="3.425" transform="translate(106.704 33.763)" fill="#3a1d71"/>
                <rect id="Rectángulo_401028" data-name="Rectángulo 401028" width="10.095" height="3.425" transform="translate(129.191 33.763)" fill="#3a1d71"/>
                <rect id="Rectángulo_401029" data-name="Rectángulo 401029" width="16.435" height="3.425" transform="translate(95.545 42.199)" fill="#3a1d71"/>
                <rect id="Rectángulo_401030" data-name="Rectángulo 401030" width="8.648" height="3.425" transform="translate(0 42.199)" fill="#3a1d71"/>
                <rect id="Rectángulo_401031" data-name="Rectángulo 401031" width="41.241" height="3.425" transform="translate(14.701 42.199)" fill="#3a1d71"/>
                <rect id="Rectángulo_401032" data-name="Rectángulo 401032" width="8.361" height="3.425" transform="translate(62.293 42.199)" fill="#3a1d71"/>
                <rect id="Rectángulo_401033" data-name="Rectángulo 401033" width="13.265" height="3.425" transform="translate(74.685 42.199)" fill="#3a1d71"/>
                <rect id="Rectángulo_401034" data-name="Rectángulo 401034" width="20.19" height="3.425" transform="translate(119.969 42.199)" fill="#3a1d71"/>
              </g>
            </g>
          </g>
          <g id="Grupo_1098889" data-name="Grupo 1098889">
            <path id="Trazado_873255" data-name="Trazado 873255" d="M815.99,356.68a34.058,34.058,0,0,1-4.55-10.16,56.064,56.064,0,0,1-1.62-13.54h7.53l-19.3-45.97c-2.3-2.72-9.1-6.36-13.48-8.53.09-.11.16-.18.16-.18a20.782,20.782,0,0,0-3.26-1.31l-.77-.36s-.65-.15-1.66-.37c-1.38-.38-2.41-.62-2.41-.62-1.56-1.57-4.78-11.46-5.15-12.63s2.06-9,2.06-9l2.52-6.87-1.23-5.39-6.32-5.41s-7.74-3-13.03-3.39a36.476,36.476,0,0,0-10.58.52c-3.23.52-7.35,6.97-7.35,6.97s2.33,10.06,2.7,10.48-.07,4.36,0,5.93,1.58,4.75,4.27,9.79,8.68,7.15,8.68,7.15l-5.97,2.26v.06c-3.48,1.41-8.38,3.43-8.38,3.43s-6.71,22.84-7.46,26.71-8.03,29.22-8.03,29.22l-10.13,6.77,4.78,9.81,1.16-3.03,4.28-2.49c-3.01-.61-3.7-2.31-3.7-2.31,4.51-3.32,11.46-1.88,11.46-1.88l7.9-3.97,13.16,2.61c3.1,3.65,2.41,12.58,2.41,12.58h13.2v3.26l48.13-.13Zm-21.33-23.94,5.26,6.44-6.24.39.98-6.83Z" fill="#fff"/>
            <path id="Trazado_873256" data-name="Trazado 873256" d="M690.33,356.83V310.85l22.74,45.98Z" fill="#7c60ff"/>
            <path id="Trazado_873257" data-name="Trazado 873257" d="M636.01,356.71l-22.52-45.86h76.84v45.98Z" fill="#251c4a"/>
            <path id="Trazado_873258" data-name="Trazado 873258" d="M664.58,332.25c1.48,2.61.98,5.69-1.11,6.88s-5,.04-6.48-2.56-.98-5.69,1.11-6.88S663.1,329.65,664.58,332.25Z" fill="#fff"/>
            <path id="Trazado_873259" data-name="Trazado 873259" d="M815.99,356.7a34.058,34.058,0,0,1-4.55-10.16A56.064,56.064,0,0,1,809.82,333h4.07l-19.3-45.97c-3.48-4.13-17.35-10.38-17.35-10.38s-8.32-1.88-12.84-2.86-15.49.31-17.74,1.16-11.29,4.58-11.29,4.58-6.71,22.84-7.46,26.71-8.03,29.22-8.03,29.22l-10.13,6.77,4.78,9.81,1.16-3.03,4.28-2.49c-3.01-.61-3.7-2.31-3.7-2.31,4.51-3.32,11.46-1.88,11.46-1.88l7.9-3.97,13.16,2.61c3.1,3.65,2.41,12.58,2.41,12.58h13.2v3.26l51.59-.13ZM791.2,332.77l5.26,6.44-6.24.39.98-6.83Z" fill="#7c60ff"/>
            <path id="Trazado_873260" data-name="Trazado 873260" d="M743.75,276.06l5.97-2.26s-5.99-2.11-8.68-7.15-4.19-8.22-4.27-9.79.37-5.51,0-5.93-2.7-10.48-2.7-10.48,4.13-6.45,7.35-6.97a36.811,36.811,0,0,1,10.58-.52c5.29.39,13.03,3.39,13.03,3.39l6.32,5.41,1.23,5.39-2.52,6.87s-2.44,7.84-2.06,9,3.6,11.06,5.15,12.63c0,0,5.62,1.31,8.11,2.66,0,0-4.93,5.88-8.92,8.71s-12.08,8.24-20.34,7.73-9.18-6.8-9.25-9.33a85.32,85.32,0,0,1,.99-9.38Z" fill="#fff"/>
            <path id="Trazado_873261" data-name="Trazado 873261" d="M714.82,352.66l.87-3.63,4.28-2.49s-3.8-1.69-3.7-2.31,3.68-1.49,5.03-1.88,4.92-.87,6.43,0c0,0,6.93-3.87,7.9-3.97s13.16,2.61,13.16,2.61a20.321,20.321,0,0,1,2.41,12.58H715.27l-.45-.92Z" fill="#fff"/>
            <path id="Trazado_873262" data-name="Trazado 873262" d="M726.14,341.91l4.81-26.77,1.15,25.01-4.38,2.2Z" fill="#251c4a"/>
            <path id="Trazado_873263" data-name="Trazado 873263" d="M776.65,310.51s2.5,15.99,13.57,27.87l.98-5.61S778.97,316.58,776.65,310.51Z" fill="#251c4a"/>
            <path id="Trazado_873264" data-name="Trazado 873264" d="M759.34,353.67h-.5c.23-8.67-3.57-12.94-3.6-12.99l.37-.34c.16.18,3.97,4.45,3.73,13.32Z" fill="#fff"/>
            <path id="Trazado_873265" data-name="Trazado 873265" d="M763.94,353.62h-.5c.22-8.64-3.57-12.89-3.61-12.94l.37-.34c.16.18,3.96,4.43,3.74,13.27Z" fill="#fff"/>
            <path id="Trazado_873266" data-name="Trazado 873266" d="M753,298.63c-5,0-8.69-1.21-11-3.59a8.239,8.239,0,0,1-2.38-5.64.252.252,0,0,1,.25-.24h.01a.248.248,0,0,1,.24.26,7.819,7.819,0,0,0,2.25,5.28c2.25,2.32,5.94,3.48,10.92,3.43a32.186,32.186,0,0,0,13.04-2.89.248.248,0,1,1,.21.45,32.639,32.639,0,0,1-13.24,2.94H753Z" fill="#fff"/>
            <path id="Trazado_873267" data-name="Trazado 873267" d="M771.23,293.07a.261.261,0,0,1-.21-.11.255.255,0,0,1,.07-.35,26.454,26.454,0,0,0,4.22-3.37.234.234,0,0,1,.35,0,.242.242,0,0,1,0,.35,26.037,26.037,0,0,1-4.31,3.44.23.23,0,0,1-.14.04Z" fill="#fff"/>
            <path id="Trazado_873268" data-name="Trazado 873268" d="M767.1,255.03a2.59,2.59,0,0,0,0,2.58,29.508,29.508,0,0,1,1.37,2.97s3.53-3.61,3.66-5.81-.39-3.61.9-5.29,1.94-2.58,1.03-4.9-2.71-1.81-1.03-4.65,2.06-1.81,1.29-4.26-1.94-3.1-1.81-5.42,0-3.48-1.29-5.16-2.32-3.48-5.16-4.65-2.19-1.81-4.13-3.1-1.68-3.87-5.81-2.97-3.35,3.35-6.32,3.74-4.13-.9-6.45-.26-1.94,1.55-4.77,2.45-5.16-1.03-7.48.26-1.55,1.68-3.61,4-4,2.71-3.1,4.77,1.81,1.81,3.1,4.65.13,3.48,2.19,5.55c0,0,3.48,3.61,7.61-.52s4.39-4,7.48-3.35,3.74,1.29,6.58.65,2.32.26,4.77,1.16,3.74.13,3.61,1.94-1.16,2.71.13,4.52,1.16,2.06,1.16,4.26-.9,3.23.9,3.61,2.32-1.81,2.84-4.39,1.16-4.13,2.84-5.16,4.13,1.03,4.13,2.45a6.271,6.271,0,0,1-.26,4.39,18.336,18.336,0,0,1-4.39,5.94Z" fill="#251c4a"/>
            <g id="Grupo_1098887" data-name="Grupo 1098887">
              <path id="Trazado_873269" data-name="Trazado 873269" d="M713.07,357.27H636.04a.5.5,0,0,1-.45-.28l-22.55-46.26a.461.461,0,0,1,.03-.48.491.491,0,0,1,.42-.24h77.03a.5.5,0,0,1,.45.28l22.55,46.26a.461.461,0,0,1-.03.48A.491.491,0,0,1,713.07,357.27Zm-76.72-1h75.92l-22.06-45.26H614.29Z" fill="#251c4a"/>
              <path id="Trazado_873270" data-name="Trazado 873270" d="M764.39,357.27a.5.5,0,0,1-.5-.5v-2.53H715.34a.5.5,0,0,1-.45-.28l-21.78-44.69H616.53l-2.79,1.67a.5.5,0,0,1-.52-.86l2.9-1.74a.485.485,0,0,1,.26-.07h77.03a.5.5,0,0,1,.45.28l21.78,44.69h48.73a.5.5,0,0,1,.5.5v3.03a.5.5,0,0,1-.5.5Z" fill="#251c4a"/>
            </g>
            <path id="Trazado_873271" data-name="Trazado 873271" d="M744.07,255.99s-.19,1.42.26,1.68,2.32-.58,2.32-.58-2.45.39-2.58-1.1Z" fill="#251c4a"/>
            <path id="Trazado_873272" data-name="Trazado 873272" d="M749.08,249.27c.23.88.11,1.67-.27,1.77s-.87-.53-1.1-1.41-.11-1.67.27-1.77S748.85,248.39,749.08,249.27Z" fill="#251c4a"/>
            <path id="Trazado_873273" data-name="Trazado 873273" d="M742.11,250.75c.23.88.11,1.67-.27,1.77s-.87-.53-1.1-1.41-.11-1.67.27-1.77S741.88,249.87,742.11,250.75Z" fill="#251c4a"/>
            <g id="Grupo_1098888" data-name="Grupo 1098888">
              <path id="Trazado_873274" data-name="Trazado 873274" d="M814.34,332.7l-19.17-45.87s-.01-.02-.02-.02l-.06-.09a.436.436,0,0,0-.06-.07s-.01-.02-.02-.02c-.43-.33-10.71-8.07-16.65-10.14a42.243,42.243,0,0,0-5.1-1.32.543.543,0,0,0-.18,0,41.752,41.752,0,0,1-4.58-12.98.505.505,0,0,0-.57-.42.5.5,0,0,0-.42.57,40.819,40.819,0,0,0,5.63,14.85.484.484,0,0,0,.42.22.6.6,0,0,0,.28-.08.5.5,0,0,0,.14-.69c-.07-.11-.13-.22-.2-.32a40.192,40.192,0,0,1,4.27,1.13c5.49,1.91,15.18,9.09,16.27,9.91l19.12,45.74a.509.509,0,0,0,.46.31.433.433,0,0,0,.19-.04.509.509,0,0,0,.27-.65Z" fill="#251c4a"/>
              <path id="Trazado_873275" data-name="Trazado 873275" d="M777.11,305.19a.708.708,0,0,0,.12.02.491.491,0,0,0,.48-.38,26.432,26.432,0,0,1,11.95-14.98.5.5,0,1,0-.49-.87,27,27,0,0,0-12.43,15.6.5.5,0,0,0,.36.61Z" fill="#251c4a"/>
              <path id="Trazado_873276" data-name="Trazado 873276" d="M808.63,341.81c-3.45-1.82-10.52-2.77-11.79-2.93-1.36-1.58-14.3-16.8-19.73-28.58a.5.5,0,1,0-.9.42c3.43,7.43,9.81,16.21,14.44,22.13,0,.02-.02.04-.03.07-.23,1.55-.52,3.73-.83,6.15l-41.16,1.33c-5.93-1.15-13.01-2.51-13.27-2.51-.03,0-1.14.56-2.8,1.42-.82-13.76-1.2-22.01-1.09-23.86.24-4.1,3.94-32.45,4.35-35.56.87-.4,3.88-1.76,7.22-3.11-.61,2.45-2.04,9.62.97,14.33a9.059,9.059,0,0,0,6.77,4.04,18.921,18.921,0,0,0,2.6.17c12.06,0,23.41-10.94,26.64-15.07a.5.5,0,0,0-.79-.61c-3.37,4.31-15.78,16.23-28.31,14.52a8.092,8.092,0,0,1-6.06-3.59c-3.18-4.96-.92-13.32-.65-14.25,1.97-.78,3.97-1.52,5.67-2.03.03,0,.05-.03.08-.04.31.15.57.27.75.35v4.97a.5.5,0,0,0,1,0v-5c1.73-.96,11.33-6.33,13.02-7.79,1.95-1.67,2.1-5.74,2.11-5.91a.509.509,0,0,0-.48-.52.53.53,0,0,0-.52.48c-.03,1.05-.42,4.03-1.76,5.18-1.61,1.38-11.31,6.81-12.9,7.69-1.16-.52-6.46-3-8.32-5.3a40.328,40.328,0,0,1-5.45-10.62,23.9,23.9,0,0,1-.12-5.02v-.12c-.05-.33-1.31-8.09-2.74-11.84a.5.5,0,0,0-.65-.29.5.5,0,0,0-.29.64c1.32,3.49,2.55,10.86,2.67,11.59a23.664,23.664,0,0,0,.14,5.24c.42,2.09,3.58,8.49,5.65,11.05,1.41,1.74,4.46,3.49,6.6,4.58-5.53,1.8-13.44,5.45-13.52,5.49l-.02.01a.457.457,0,0,0-.17.14.076.076,0,0,1-.02.04.671.671,0,0,0-.06.12l-15.56,55.76-9.85,6.67a.491.491,0,0,0-.13.69.5.5,0,0,0,.41.22.49.49,0,0,0,.28-.09l10-6.77a.507.507,0,0,0,.2-.28l13.74-49.21c-1.23,9.55-3.31,25.87-3.49,28.98-.11,1.93.26,10.15,1.12,24.42-1.1.57-2.37,1.23-3.7,1.93-4.05-1.08-10.37.92-11.73,2.1a.906.906,0,0,0-.39.81c.12.82,1.62,1.54,2.97,2.02a21.828,21.828,0,0,0-3.56,2.2,28.492,28.492,0,0,0-.85,3.7.5.5,0,0,0,.4.58h.09a.494.494,0,0,0,.49-.41,33.2,33.2,0,0,1,.73-3.36c.38-.29,2.03-1.23,4.22-2.44h0c2.3-1.27,5.19-2.82,7.84-4.24a.3.3,0,0,0,.08-.04c3.51-1.87,6.59-3.47,7.24-3.77.99.16,8.01,1.51,12.84,2.45a20.564,20.564,0,0,1,2.43,12.32.505.505,0,0,0,.42.57h.08a.5.5,0,0,0,.49-.42,21.156,21.156,0,0,0-2.27-12.45l40.64-1.31a.3.3,0,0,0,.09.03h.06a.455.455,0,0,0,.2-.05l6.14-.2c.45.05,8.12,1.02,11.59,2.84a.465.465,0,0,0,.23.06.5.5,0,0,0,.44-.27.487.487,0,0,0-.21-.67Zm-91.82,2.77c.78-.73,5.82-2.53,9.65-2.1-2.25,1.19-4.58,2.44-6.54,3.52a9.691,9.691,0,0,1-3.11-1.42Zm73.99-5.54c.25-1.93.48-3.7.68-5.11,1.79,2.26,3.25,4.01,4.05,4.96Z" fill="#251c4a"/>
              <path id="Trazado_873277" data-name="Trazado 873277" d="M801.23,335.98a.567.567,0,0,0,.18-.03l5.11-1.93a.5.5,0,0,0-.35-.93l-5.11,1.93a.5.5,0,0,0-.29.64.506.506,0,0,0,.47.32Z" fill="#251c4a"/>
              <path id="Trazado_873278" data-name="Trazado 873278" d="M764.86,246.33a.5.5,0,0,0,.64-.29c.35-.92,1.55-3.38,2.98-3.64a2.124,2.124,0,0,1,1.92.96,4.242,4.242,0,0,1,.94,3.57c-.46,3.14-3.36,6.48-5.28,7.68a.5.5,0,0,0,.26.93.42.42,0,0,0,.26-.08c2.39-1.49,5.27-5.12,5.74-8.38a5.216,5.216,0,0,0-1.18-4.37,3.059,3.059,0,0,0-2.85-1.28c-2.28.42-3.68,4.12-3.74,4.28a.5.5,0,0,0,.29.64Z" fill="#251c4a"/>
              <path id="Trazado_873279" data-name="Trazado 873279" d="M747.15,263.49a.487.487,0,0,0-.48.51.5.5,0,0,0,.5.49h.01a9,9,0,0,0,7.19-4.32.5.5,0,0,0-.18-.68.493.493,0,0,0-.68.18,8.151,8.151,0,0,1-6.35,3.81Z" fill="#251c4a"/>
              <path id="Trazado_873280" data-name="Trazado 873280" d="M745.55,244.17a.493.493,0,0,0,.38-.18,5.538,5.538,0,0,1,5.91-1.4.5.5,0,0,0,.32-.94,6.578,6.578,0,0,0-6.99,1.7.5.5,0,0,0,.38.82Z" fill="#251c4a"/>
              <path id="Trazado_873281" data-name="Trazado 873281" d="M737.62,246.17a.46.46,0,0,0,.33-.13,4.98,4.98,0,0,1,3.06-.84.513.513,0,0,0,.53-.47.5.5,0,0,0-.47-.53,5.9,5.9,0,0,0-3.78,1.09.5.5,0,0,0-.04.71.512.512,0,0,0,.37.17Z" fill="#251c4a"/>
              <path id="Trazado_873282" data-name="Trazado 873282" d="M661.56,329.04a4.295,4.295,0,0,0-5.93,3.65,6.913,6.913,0,0,0,4.37,7.08,5.11,5.11,0,0,0,1.69.3,4.214,4.214,0,0,0,2.2-.61,4.426,4.426,0,0,0,2.03-3.34,6.913,6.913,0,0,0-4.37-7.08Zm3.37,6.95a3.446,3.446,0,0,1-1.56,2.61,3.482,3.482,0,0,1-3.04.22,5.594,5.594,0,0,1-2.85-2.4,5.656,5.656,0,0,1-.86-3.62,3.446,3.446,0,0,1,1.56-2.61,3.144,3.144,0,0,1,1.68-.46,4.152,4.152,0,0,1,1.36.24,5.582,5.582,0,0,1,2.85,2.39h0a5.656,5.656,0,0,1,.86,3.62Z" fill="#251c4a"/>
            </g>
          </g>
          <g id="Grupo_1098891" data-name="Grupo 1098891">
            <path id="Trazado_873283" data-name="Trazado 873283" d="M839.9,356.77s6.1-6.9,6.29-23.77H811.8c.19,16.87,6.29,23.77,6.29,23.77H839.9Z" fill="#fff"/>
            <path id="Trazado_873284" data-name="Trazado 873284" d="M841.19,353.74c11.5.27,16.89-6.07,15.34-12.94s-10.96-5.32-10.96-5.32v3.87c2.85-.58,7.73.5,6.57,5.11s-9.22,5.25-9.22,5.25l-1.73,4.04Z" fill="#fff"/>
            <path id="Trazado_873285" data-name="Trazado 873285" d="M840.28,336.46h-.02a.5.5,0,0,0-.5.48,45.6,45.6,0,0,1-1.19,8,.5.5,0,0,0,.37.6c.04,0,.08.01.12.01a.513.513,0,0,0,.49-.38,47.088,47.088,0,0,0,1.22-8.2.509.509,0,0,0-.48-.52Zm-2.41,12.77a.5.5,0,0,0-.64.3c-.28.79-.59,1.57-.91,2.32a.5.5,0,0,0,.26.66.448.448,0,0,0,.2.04.5.5,0,0,0,.46-.3c.33-.77.65-1.57.93-2.39a.5.5,0,0,0-.3-.64Zm17.72-8.54c-1.41-6.27-8.93-5.97-11-5.77.02-.63.04-1.26.05-1.92a.542.542,0,0,0-.14-.36.515.515,0,0,0-.36-.15H809.75a.507.507,0,0,0-.36.15.467.467,0,0,0-.14.36c.19,16.87,6.16,23.81,6.41,24.1a.5.5,0,0,0,.38.17h21.81a.48.48,0,0,0,.37-.17,15.684,15.684,0,0,0,1.85-2.85h.37c5.89,0,10.56-1.76,13.21-4.99a9.837,9.837,0,0,0,1.93-8.57Zm-11.38-.85h.03c1.74-.36,4.14-.04,5.36,1.23a3.281,3.281,0,0,1,.63,3.26c-.86,3.4-6.01,4.48-7.99,4.77a48.815,48.815,0,0,0,1.98-9.27Zm-6.6,16.43H816.28c-.88-1.14-5.74-8.08-6.02-22.77h33.38c-.28,14.7-5.14,21.63-6.02,22.77Zm15.27-7.64c-2.43,2.96-6.79,4.58-12.29,4.6a33.115,33.115,0,0,0,1.28-3.06c1.58-.18,8.22-1.18,9.33-5.59a4.229,4.229,0,0,0-.88-4.2c-1.47-1.54-4.07-1.88-6-1.57.09-.92.17-1.89.22-2.89,1.6-.2,8.77-.76,10.07,4.98a8.867,8.867,0,0,1-1.73,7.72Z" fill="#251c4a"/>
            <g id="Grupo_1098890" data-name="Grupo 1098890">
              <path id="Trazado_873286" data-name="Trazado 873286" d="M816.57,320.25a.5.5,0,1,0-.99-.15,6.215,6.215,0,0,0,1.66,5.61.5.5,0,0,0,.33.12.516.516,0,0,0,.38-.17.506.506,0,0,0-.05-.71,5.279,5.279,0,0,1-1.33-4.7Z" fill="#251c4a"/>
              <path id="Trazado_873287" data-name="Trazado 873287" d="M818.5,289.49c-.13-.46-.29-.98-.45-1.58a.5.5,0,1,0-.96.26c.17.61.32,1.14.46,1.6.79,2.71.94,3.2-.45,7.18-1.69,4.85-2.39,6.86-.75,10.27a10.319,10.319,0,0,1,.33,9.62.5.5,0,0,0,.28.65.585.585,0,0,0,.19.04.489.489,0,0,0,.46-.31,11.333,11.333,0,0,0-.36-10.43c-1.46-3.04-.89-4.67.79-9.51,1.49-4.28,1.29-4.95.46-7.79Z" fill="#251c4a"/>
              <path id="Trazado_873288" data-name="Trazado 873288" d="M835.29,318.05c2.19-4.89,1.69-7.73,0-11.26-1.46-3.04-.89-4.67.8-9.51.09-.26.18-.51.26-.75a.493.493,0,0,0-.32-.63.5.5,0,0,0-.63.32c-.08.23-.16.48-.25.74-1.69,4.85-2.39,6.86-.75,10.27,1.6,3.33,2.04,5.85,0,10.42-2.32,5.18.77,7.95.9,8.07a.5.5,0,0,0,.33.12.516.516,0,0,0,.38-.17.506.506,0,0,0-.05-.71c-.03-.02-2.67-2.39-.65-6.9Z" fill="#251c4a"/>
              <path id="Trazado_873289" data-name="Trazado 873289" d="M827.73,291.11c.87-3.97.1-5.41-.97-7.4-.12-.23-.25-.47-.38-.72a.5.5,0,0,0-.88.46c.13.26.26.5.39.73,1,1.87,1.66,3.1.87,6.71a36.2,36.2,0,0,1-1.3,4.34c-.98,2.82-1.76,5.05-.33,7.62,1.96,3.52,2.55,5.93.63,10.13a8.341,8.341,0,0,0,1.11,8.66.482.482,0,0,0,.38.17.491.491,0,0,0,.32-.12.5.5,0,0,0,.06-.7,7.361,7.361,0,0,1-.96-7.6c2.08-4.56,1.41-7.29-.66-11.03-1.21-2.18-.54-4.12.4-6.81a36.954,36.954,0,0,0,1.33-4.45Z" fill="#251c4a"/>
              <path id="Trazado_873290" data-name="Trazado 873290" d="M824.69,280.7a.487.487,0,0,0,.14-.02.505.505,0,0,0,.34-.62c-.91-3.09-.4-5.95,1.41-7.84a.5.5,0,0,0-.73-.69c-2.06,2.16-2.66,5.37-1.64,8.82a.492.492,0,0,0,.48.36Z" fill="#251c4a"/>
            </g>
          </g>
          <g id="Grupo_1098892" data-name="Grupo 1098892">
            <path id="Trazado_873292" data-name="Trazado 873292" d="M841.49,234.14h-48v29.92l-.1,7.13,7.13-7.13h40.97Z" fill="#ffc7ec"/>
            <path id="Trazado_873293" data-name="Trazado 873293" d="M790.97,269.5a.3.3,0,0,1-.16-.03.505.505,0,0,1-.34-.47V236.35a.5.5,0,0,1,.5-.5h47.42a.5.5,0,0,1,.5.5V262.8a.5.5,0,0,1-.5.5H796.05l-4.69,6a.508.508,0,0,1-.39.19Zm.5-32.65v30.69l3.95-5.05a.493.493,0,0,1,.39-.19h42.08V236.85H791.47Z" fill="#251c4a"/>
            <path id="Trazado_873294" data-name="Trazado 873294" d="M800.52,243.55a1.32,1.32,0,1,1-1.32-1.32A1.319,1.319,0,0,1,800.52,243.55Z" fill="#7c60ff"/>
            <path id="Trazado_873295" data-name="Trazado 873295" d="M830.65,244.05H803.88a.5.5,0,0,1,0-1h26.77a.5.5,0,0,1,0,1Z" fill="#fff"/>
            <circle id="Elipse_11457" data-name="Elipse 11457" cx="1.32" cy="1.32" r="1.32" transform="translate(797.88 248.03)" fill="#7c60ff"/>
            <path id="Trazado_873296" data-name="Trazado 873296" d="M827.49,249.85H803.88a.5.5,0,0,1,0-1h23.61a.5.5,0,0,1,0,1Z" fill="#fff"/>
            <path id="Trazado_873297" data-name="Trazado 873297" d="M800.52,255.16a1.32,1.32,0,1,1-1.32-1.32A1.319,1.319,0,0,1,800.52,255.16Z" fill="#7c60ff"/>
            <path id="Trazado_873298" data-name="Trazado 873298" d="M823.1,255.66H803.87a.5.5,0,0,1,0-1H823.1a.5.5,0,0,1,0,1Z" fill="#fff"/>
            <path id="Trazado_873299" data-name="Trazado 873299" d="M831.68,255.66h-5.55a.5.5,0,0,1,0-1h5.55a.5.5,0,0,1,0,1Z" fill="#fff"/>
          </g>
          <g id="Grupo_1098893" data-name="Grupo 1098893">
            <path id="Trazado_873300" data-name="Trazado 873300" d="M582.59,283.92a.469.469,0,0,1-.35-.15.509.509,0,0,1-.15-.35V255.81a.481.481,0,0,1,.49-.5h0a.5.5,0,0,1,.5.5v27.11l36.93-.01h0a.5.5,0,0,1,0,1H582.59Z" fill="#251c4a"/>
            <rect id="Rectángulo_401114" data-name="Rectángulo 401114" width="5.81" height="16.16" transform="translate(588.81 263.1)" fill="#7c60ff"/>
            <rect id="Rectángulo_401115" data-name="Rectángulo 401115" width="5.81" height="24.48" transform="translate(598.49 254.77)" fill="#f5c59d"/>
            <rect id="Rectángulo_401116" data-name="Rectángulo 401116" width="5.81" height="19.74" transform="translate(608.17 259.51)" fill="#fff"/>
          </g>
          <g id="Grupo_1098895" data-name="Grupo 1098895">
            <path id="Trazado_873301" data-name="Trazado 873301" d="M546.49,216.87a10.44,10.44,0,0,0,.14-1.59,10.272,10.272,0,0,0-.1-1.37l.15.27,5.4-4.38-1.56-2.7-1.56-2.69s-4.23,1.62-6.41,2.46l.24.42a10.4,10.4,0,0,0-2.51-1.49h.29c-.36-2.28-1.09-6.87-1.09-6.87h-6.22s-.71,4.47-1.08,6.78h.49a10.677,10.677,0,0,0-2.57,1.46l.16-.27c-2.16-.83-6.49-2.49-6.49-2.49l-1.56,2.7-1.56,2.69s3.52,2.85,5.33,4.32l.26-.43a10.44,10.44,0,0,0-.14,1.59,10.272,10.272,0,0,0,.1,1.37l-.15-.27-5.4,4.38,1.56,2.7,1.56,2.69s4.23-1.62,6.41-2.46l-.24-.42a10.4,10.4,0,0,0,2.51,1.49h-.29c.36,2.28,1.09,6.87,1.09,6.87h6.22s.71-4.47,1.08-6.78h-.49a10.677,10.677,0,0,0,2.57-1.46l-.16.27c2.16.83,6.49,2.49,6.49,2.49l1.56-2.69,1.56-2.7s-3.52-2.85-5.33-4.32Zm-10.12,2.34a3.93,3.93,0,1,1,3.93-3.93A3.931,3.931,0,0,1,536.37,219.21Z" fill="#f5c59d"/>
            <g id="Grupo_1098894" data-name="Grupo 1098894">
              <path id="Trazado_873302" data-name="Trazado 873302" d="M535.18,209.85a4.43,4.43,0,1,0,4.43,4.43A4.438,4.438,0,0,0,535.18,209.85Zm0,7.85a3.43,3.43,0,1,1,3.43-3.43A3.436,3.436,0,0,1,535.18,217.7Z" fill="#251c4a"/>
              <path id="Trazado_873303" data-name="Trazado 873303" d="M545.9,215.06c.02-.26.04-.52.04-.79s-.02-.53-.04-.79l5.31-4.3a.507.507,0,0,0,.12-.64l-3.11-5.39a.51.51,0,0,0-.61-.22l-6.37,2.44a9.7,9.7,0,0,0-1.37-.78l-1.07-6.75a.5.5,0,0,0-.49-.42h-6.22a.488.488,0,0,0-.49.42l-1.07,6.75a10.791,10.791,0,0,0-1.37.78l-6.37-2.44a.488.488,0,0,0-.61.22l-3.11,5.39a.509.509,0,0,0,.12.64l5.31,4.3c-.02.26-.04.52-.04.79s.02.53.04.79l-5.31,4.3a.507.507,0,0,0-.12.64l3.11,5.39a.5.5,0,0,0,.43.25.566.566,0,0,0,.18-.03l6.37-2.44a9.7,9.7,0,0,0,1.37.78l1.07,6.75a.5.5,0,0,0,.49.42h6.22a.488.488,0,0,0,.49-.42l1.07-6.75a10.791,10.791,0,0,0,1.37-.78l6.37,2.44a.566.566,0,0,0,.18.03.5.5,0,0,0,.43-.25l3.11-5.39a.509.509,0,0,0-.12-.64Zm1.66-11.03,2.68,4.65-4.49,3.64a10.772,10.772,0,0,0-3.6-6.22l5.41-2.07Zm-12.38,20a9.76,9.76,0,1,1,9.76-9.76A9.773,9.773,0,0,1,535.18,224.03Zm-2.68-25.6h5.37l.91,5.72a10.544,10.544,0,0,0-7.18,0l.91-5.72Zm-12.38,10.25,2.68-4.65,5.41,2.07a10.772,10.772,0,0,0-3.6,6.22l-4.49-3.64Zm2.68,15.84-2.68-4.65,4.49-3.64a10.772,10.772,0,0,0,3.6,6.22l-5.41,2.07Zm15.07,5.6H532.5l-.91-5.72a10.544,10.544,0,0,0,7.18,0l-.91,5.72Zm9.69-5.6-5.41-2.07a10.772,10.772,0,0,0,3.6-6.22l4.49,3.64-2.69,4.65Z" fill="#251c4a"/>
            </g>
          </g>
          <g id="Grupo_1098896" data-name="Grupo 1098896">
            <path id="Trazado_873304" data-name="Trazado 873304" d="M797.88,201.79l-2.53-10.37a15.872,15.872,0,0,1-7.34-13.59c0-9.5,7.12-17.43,17.82-16.56s15.37,9.93,14.99,15.17-.47,8.56-3.55,11.56-5,4.66-5,4.66l-2.52,9.13H797.88Z" fill="#f5c59d"/>
            <path id="Trazado_873305" data-name="Trazado 873305" d="M800.39,167.07a1.92,1.92,0,1,1-1.92-1.92A1.92,1.92,0,0,1,800.39,167.07Z" fill="#fff"/>
            <path id="Trazado_873306" data-name="Trazado 873306" d="M794.31,171.15a.85.85,0,1,1-.85-.85A.849.849,0,0,1,794.31,171.15Z" fill="#fff"/>
            <path id="Trazado_873307" data-name="Trazado 873307" d="M796.56,201.79h16.09l-1.34,11.1-13.85-.1Z" fill="#7c60ff"/>
            <path id="Trazado_873308" data-name="Trazado 873308" d="M793.4,206.63a.25.25,0,0,1-.02-.5l21.29-1.55a.237.237,0,0,1,.27.23.248.248,0,0,1-.23.27l-21.29,1.55Z" fill="#fff"/>
            <path id="Trazado_873309" data-name="Trazado 873309" d="M793.4,210.26a.25.25,0,0,1-.02-.5l21.29-1.55a.243.243,0,0,1,.27.23.248.248,0,0,1-.23.27l-21.29,1.55Z" fill="#fff"/>
            <path id="Trazado_873310" data-name="Trazado 873310" d="M803.24,160.58c-10.01,0-18.15,7.81-18.15,17.41a17.221,17.221,0,0,0,7.84,14.09,3.309,3.309,0,0,1,1.37,1.98l1.77,7.24h-.72a.523.523,0,0,0-.37.16.481.481,0,0,0-.13.38l1.03,11.1a.493.493,0,0,0,.5.45h1.84c.33,1.91,2.44,3.39,5.02,3.39s4.7-1.48,5.02-3.39h1.84a.508.508,0,0,0,.5-.45l1.03-11.1a.481.481,0,0,0-.13-.38.506.506,0,0,0-.37-.16h-.72l1.77-7.24a3.4,3.4,0,0,1,1.37-1.98,17.221,17.221,0,0,0,7.84-14.09c0-9.6-8.14-17.41-18.15-17.41Zm0,55.19c-1.99,0-3.64-1.01-4.01-2.39h8.03C806.92,214.73,805.25,215.77,803.24,215.77Zm6.4-3.38H798.92a.452.452,0,0,0-.26-.09.517.517,0,0,0-.31.09h-1.53l-.94-10.1h14.69l-.94,10.1Zm-6.06-11.1V193.4a.5.5,0,1,0-1,0v7.89h-3.05l-3.81-22.27,2.16-1.89,2.31,2.43a.507.507,0,0,0,.36.15.516.516,0,0,0,.33-.12l2.34-2.04,2.34,2.04a.5.5,0,0,0,.69-.03l2.31-2.43,1.9,1.66-3.85,22.5h-3.05Zm9.41-10.04a4.34,4.34,0,0,0-1.78,2.57l-1.82,7.48h-1.74l3.8-22.22a.739.739,0,0,0,.06-.05.483.483,0,0,0,.05-.58l.25-1.47a.5.5,0,1,0-.99-.17l-.14.83-1.8-1.57a.509.509,0,0,0-.69.03l-2.32,2.43-2.31-2.01a.514.514,0,0,0-.66,0l-2.31,2.01-2.32-2.43a.5.5,0,0,0-.69-.03l-2.06,1.8-.18-1.06a.506.506,0,0,0-.58-.41.5.5,0,0,0-.41.58l4.16,24.32h-1.43l-1.82-7.47a4.34,4.34,0,0,0-1.78-2.57,16.237,16.237,0,0,1-7.4-13.26c0-9.05,7.7-16.41,17.15-16.41s17.15,7.36,17.15,16.41a16.223,16.223,0,0,1-7.4,13.26Z" fill="#251c4a"/>
          </g>
          <g id="Grupo_1098897" data-name="Grupo 1098897">
            <path id="Trazado_873311" data-name="Trazado 873311" d="M645.55,264.06v25.35h35.93l4.07,5.4V264.06Z" fill="#f5c59d"/>
            <path id="Trazado_873312" data-name="Trazado 873312" d="M682.78,293.98a.493.493,0,0,1-.39-.19l-4.69-6H643.11a.5.5,0,0,1-.5-.5V264.06a.5.5,0,0,1,.5-.5h39.68a.5.5,0,0,1,.5.5v29.42a.505.505,0,0,1-.34.47.453.453,0,0,1-.16.03Zm-39.18-7.2h34.34a.493.493,0,0,1,.39.19l3.95,5.05V264.55H643.6v22.23Z" fill="#251c4a"/>
            <path id="Trazado_873313" data-name="Trazado 873313" d="M659.55,281.33H655a.5.5,0,0,1,0-1h4.55a.5.5,0,0,1,0,1Z" fill="#fff"/>
            <path id="Trazado_873314" data-name="Trazado 873314" d="M677.55,281.33H663.81a.5.5,0,0,1,0-1h13.74a.5.5,0,0,1,0,1Z" fill="#fff"/>
            <path id="Trazado_873315" data-name="Trazado 873315" d="M677.55,276.11H653.26a.5.5,0,0,1,0-1h24.29a.5.5,0,0,1,0,1Z" fill="#fff"/>
            <path id="Trazado_873316" data-name="Trazado 873316" d="M654.72,270.88h-5.03a.5.5,0,0,1,0-1h5.03a.5.5,0,0,1,0,1Z" fill="#fff"/>
            <path id="Trazado_873317" data-name="Trazado 873317" d="M677.55,270.88H659.84a.5.5,0,0,1,0-1h17.71a.5.5,0,0,1,0,1Z" fill="#fff"/>
            <circle id="Elipse_11458" data-name="Elipse 11458" cx="2.84" cy="2.84" r="2.84" transform="translate(673.81 261.22)" fill="#7c60ff"/>
          </g>
        </g>
        <g id="Grupo_1098186" data-name="Grupo 1098186" transform="translate(1256.616 593.408)">
          <g id="Grupo_1098185" data-name="Grupo 1098185" transform="translate(-53 -21)" clip-path="url(#clip-path-3)">
            <path id="Trazado_849140" data-name="Trazado 849140" d="M26.555.5H5.459A4.959,4.959,0,0,0,.5,5.459V15.723a4.959,4.959,0,0,0,4.959,4.959h5.514l4.178,9.47,5.89-9.47h5.514a4.959,4.959,0,0,0,4.959-4.959V5.459A4.959,4.959,0,0,0,26.555.5" fill="#fff"/>
            <path id="Trazado_849141" data-name="Trazado 849141" d="M26.555.5H5.459A4.959,4.959,0,0,0,.5,5.459V15.723a4.959,4.959,0,0,0,4.959,4.959h5.514l4.178,9.47,5.89-9.47h5.514a4.959,4.959,0,0,0,4.959-4.959V5.459A4.959,4.959,0,0,0,26.555.5Z" fill="none" stroke="#263238" stroke-linecap="round" stroke-linejoin="round" stroke-width="1"/>
            <path id="Trazado_849142" data-name="Trazado 849142" d="M9.893,12.41H4.51a2.076,2.076,0,0,0,2.222,1.645A2.455,2.455,0,0,0,8.6,13.309l.861.99a3.481,3.481,0,0,1-2.762,1.117A3.483,3.483,0,0,1,2.9,11.9,3.412,3.412,0,0,1,6.45,8.388a3.346,3.346,0,0,1,3.468,3.547c0,.128-.012.321-.025.475M4.5,11.344H8.39A1.868,1.868,0,0,0,6.45,9.673,1.9,1.9,0,0,0,4.5,11.344" fill="#263238"/>
            <rect id="Rectángulo_388581" data-name="Rectángulo 388581" width="1.606" height="9.533" transform="translate(11.456 5.793)" fill="#263238"/>
            <path id="Trazado_849143" data-name="Trazado 849143" d="M14.383,14.645,15,13.424a4.607,4.607,0,0,0,2.389.681c1.015,0,1.439-.282,1.439-.758,0-1.31-4.239-.077-4.239-2.814,0-1.3,1.168-2.145,3.019-2.145a5.454,5.454,0,0,1,2.569.591L19.56,10.2a3.755,3.755,0,0,0-1.965-.514c-.977,0-1.439.322-1.439.771,0,1.388,4.24.154,4.24,2.839,0,1.286-1.182,2.12-3.11,2.12a5.458,5.458,0,0,1-2.9-.77" fill="#263238"/>
            <path id="Trazado_849144" data-name="Trazado 849144" d="M28.2,12.41H22.82a2.076,2.076,0,0,0,2.222,1.645,2.455,2.455,0,0,0,1.863-.746l.861.99A3.481,3.481,0,0,1,25,15.416a3.483,3.483,0,0,1-3.79-3.52A3.412,3.412,0,0,1,24.76,8.388a3.346,3.346,0,0,1,3.468,3.547c0,.128-.012.321-.025.475m-5.4-1.066H26.7a1.868,1.868,0,0,0-1.94-1.671,1.9,1.9,0,0,0-1.953,1.671" fill="#263238"/>
          </g>
        </g>
        <g id="Grupo_1098188" data-name="Grupo 1098188" transform="translate(1335.29 609.699)">
          <g id="Grupo_1098187" data-name="Grupo 1098187" transform="translate(0 0)" clip-path="url(#clip-path-4)">
            <path id="Trazado_849145" data-name="Trazado 849145" d="M29.444.5H6.009A5.508,5.508,0,0,0,.5,6.009v11.4a5.509,5.509,0,0,0,5.509,5.509h6.125l4.641,10.52,6.543-10.52h6.125a5.509,5.509,0,0,0,5.509-5.509V6.009A5.508,5.508,0,0,0,29.444.5" transform="translate(0.055 0.056)" fill="#fff"/>
            <path id="Trazado_849146" data-name="Trazado 849146" d="M29.444.5H6.009A5.508,5.508,0,0,0,.5,6.009v11.4a5.509,5.509,0,0,0,5.509,5.509h6.125l4.641,10.52,6.543-10.52h6.125a5.509,5.509,0,0,0,5.509-5.509V6.009A5.508,5.508,0,0,0,29.444.5Z" transform="translate(0.055 0.056)" fill="none" stroke="#263238" stroke-linecap="round" stroke-linejoin="round" stroke-width="1"/>
            <path id="Trazado_849147" data-name="Trazado 849147" d="M11.918,11.4c.571.186.842.571.842,1.456v2.712a.957.957,0,0,0,1.056,1.084h.3v1.427H13.4a2.119,2.119,0,0,1-2.426-2.326v-2.94c0-.471-.242-.685-.642-.685H9.863V10.675h.471c.4,0,.642-.214.642-.685V7.049A2.119,2.119,0,0,1,13.4,4.723h.714V6.15h-.3A.958.958,0,0,0,12.76,7.236V9.946c0,.885-.271,1.271-.842,1.456" transform="translate(1.093 0.524)" fill="#263238"/>
            <path id="Trazado_849148" data-name="Trazado 849148" d="M21.937,10.674V12.13h-.485c-.384,0-.628.213-.628.684v2.94a2.13,2.13,0,0,1-2.441,2.327H17.67V16.654h.3a.961.961,0,0,0,1.07-1.084V12.858c0-.884.257-1.271.829-1.456-.572-.186-.829-.57-.829-1.455V7.235a.962.962,0,0,0-1.07-1.085h-.3V4.723h.713a2.129,2.129,0,0,1,2.441,2.326V9.988c0,.472.243.685.628.685Z" transform="translate(1.959 0.524)" fill="#263238"/>
          </g>
        </g>
        <g id="Grupo_1098190" data-name="Grupo 1098190" transform="translate(1213.298 713.727) rotate(-90)">
          <g id="Grupo_1098189" data-name="Grupo 1098189" transform="translate(0 0)" clip-path="url(#clip-path-5)">
            <path id="Trazado_849149" data-name="Trazado 849149" d="M30.236,0H5.755A5.754,5.754,0,0,0,0,5.755V17.666a5.755,5.755,0,0,0,5.755,5.755h6.4L17,34.411l6.835-10.99h6.4a5.755,5.755,0,0,0,5.755-5.755V5.755A5.754,5.754,0,0,0,30.236,0" transform="translate(0.58 0.58)" fill="#fff"/>
            <path id="Trazado_849150" data-name="Trazado 849150" d="M30.236,0H5.755A5.754,5.754,0,0,0,0,5.755V17.666a5.755,5.755,0,0,0,5.755,5.755h6.4L17,34.411l6.835-10.99h6.4a5.755,5.755,0,0,0,5.755-5.755V5.755A5.754,5.754,0,0,0,30.236,0Z" transform="translate(0.58 0.58)" fill="none" stroke="#263238" stroke-linecap="round" stroke-linejoin="round" stroke-width="1"/>
            <path id="Trazado_849151" data-name="Trazado 849151" d="M0,1.119A1.135,1.135,0,0,1,1.193,0,1.11,1.11,0,0,1,2.386,1.073,1.145,1.145,0,0,1,1.193,2.237,1.136,1.136,0,0,1,0,1.119m.254,2.43H2.118v7.962H.254Z" transform="translate(25.662 7.419) rotate(90)" fill="#263238"/>
            <path id="Trazado_849152" data-name="Trazado 849152" d="M3.116,2.787v.477H5.308V4.756H3.175v6.412H1.311V4.756H0V3.264H1.311V2.758A2.573,2.573,0,0,1,4.159,0,2.982,2.982,0,0,1,5.844.432l-.522,1.4a1.834,1.834,0,0,0-1.028-.328c-.775,0-1.178.433-1.178,1.282" transform="translate(25.318 10.921) rotate(90)" fill="#263238"/>
          </g>
        </g>
        <g id="Grupo_1098901" data-name="Grupo 1098901" transform="translate(1364.846 680.078)">
          <g id="Grupo_1098191" data-name="Grupo 1098191" transform="translate(0 0)" clip-path="url(#clip-path-6)">
            <path id="Trazado_849153" data-name="Trazado 849153" d="M26.555,30.151H5.459A4.959,4.959,0,0,1,.5,25.192V14.929A4.959,4.959,0,0,1,5.459,9.97h5.514L9.771.5l11.27,9.47h5.514a4.959,4.959,0,0,1,4.959,4.959V25.192a4.959,4.959,0,0,1-4.959,4.959" transform="translate(0 0)" fill="#fff"/>
            <path id="Trazado_849154" data-name="Trazado 849154" d="M26.555,30.151H5.459A4.959,4.959,0,0,1,.5,25.192V14.929A4.959,4.959,0,0,1,5.459,9.97h5.514L9.771.5l11.27,9.47h5.514a4.959,4.959,0,0,1,4.959,4.959V25.192A4.959,4.959,0,0,1,26.555,30.151Z" transform="translate(0 0)" fill="none" stroke="#263238" stroke-linecap="round" stroke-linejoin="round" stroke-width="1"/>
            <path id="Trazado_849155" data-name="Trazado 849155" d="M13.768,23.642a.994.994,0,0,0-1.041-.989.979.979,0,0,0-1.014.989.99.99,0,0,0,1.014,1,1,1,0,0,0,1.041-1m-.09-8.081h-1.9l.321,6.013H13.37Z" transform="translate(6.533 0)" fill="#263238"/>
            <path id="Trazado_849156" data-name="Trazado 849156" d="M21.283,17.862H15.36v1.284h5.923Zm0,3.108H15.36v1.285h5.923Z" transform="translate(-4.629 0)" fill="#263238"/>
          </g>
        </g>
      </g>
      <rect id="Rectángulo_401103" data-name="Rectángulo 401103" width="400" height="4" rx="2" transform="translate(1020 775)" fill="#2e1460"/>
    </g>
  </g>
</svg>
