<svg xmlns="http://www.w3.org/2000/svg" width="62" height="58" viewBox="0 0 62 58">
  <g id="Grupo_1098872" data-name="Grupo 1098872" transform="translate(-252.955 -631.38)">
    <rect id="Rectángulo_400902" data-name="Rectángulo 400902" width="62" height="58" rx="8" transform="translate(252.955 631.38)" fill="#fff"/>
    <g id="profesor_6_" data-name="profesor (6)" transform="translate(263.013 637.123)">
      <path id="Trazado_873324" data-name="Trazado 873324" d="M42,59Z" transform="translate(-11.475 -16.119)" fill="#966857"/>
      <path id="Trazado_873331" data-name="Trazado 873331" d="M9.814,51a27.228,27.228,0,0,1-.727,5.814S4,56.814,4,51a2.907,2.907,0,0,0,5.814,0Z" transform="translate(-1.093 -13.934)" fill="#99edf2"/>
      <path id="Trazado_873334" data-name="Trazado 873334" d="M29.17,55.077H17.541v-10.9L11,52.17a27.228,27.228,0,0,0,.727-5.814l1.454-8.722,1.454-1.454L23.355,34v.727l2.907,2.907,1.454,1.454-2.18,9.448,2.18,1.454v3.634A1.458,1.458,0,0,0,29.17,55.077Z" transform="translate(-3.005 -9.289)" fill="#99edf2"/>
      <path id="Trazado_873336" data-name="Trazado 873336" d="M14.18,26v5.088H12V26Z" transform="translate(-3.279 -7.103)" fill="#99edf2"/>
      <path id="Trazado_873337" data-name="Trazado 873337" d="M6,30h4.361v2.18H6Z" transform="translate(-1.639 -8.196)" fill="#99edf2"/>
      <path id="Trazado_873338" data-name="Trazado 873338" d="M11.814,35.18a2.135,2.135,0,0,0-2.18,2.18H7.454L6,35.907V33H9.634a2.135,2.135,0,0,0,2.18,2.18Z" transform="translate(-1.639 -9.016)" fill="#99edf2"/>
      <path id="Trazado_873339" data-name="Trazado 873339" d="M14.634,33v2.907L13.18,37.361H11a2.135,2.135,0,0,1,2.18-2.18A2.135,2.135,0,0,1,11,33Z" transform="translate(-3.005 -9.016)" fill="#99edf2"/>
      <path id="Trazado_873340" data-name="Trazado 873340" d="M11.268,39,9.814,47.721a2.907,2.907,0,0,1-5.814,0L6.907,39Z" transform="translate(-1.093 -10.655)" fill="#99edf2"/>
      <path id="Trazado_873341" data-name="Trazado 873341" d="M8.361,49.9a2.907,2.907,0,0,1-2.907-2.907L8.119,39H6.907L4,47.721A2.9,2.9,0,0,0,8.875,49.85a2.933,2.933,0,0,1-.515.052Z" transform="translate(-1.093 -10.655)" fill="#99edf2"/>
      <g id="Grupo_1098908" data-name="Grupo 1098908" transform="translate(13.082 0.727)">
        <path id="Trazado_873319" data-name="Trazado 873319" d="M39.989,8.995v3.467a2.155,2.155,0,0,0-1.454-.56c-9.448,0-9.448-3.634-9.448-3.634,0,3.634-3.634,3.634-3.634,3.634a2.155,2.155,0,0,0-1.454.56V8.995a7.995,7.995,0,0,1,15.989,0Z" transform="translate(-24 -1)" fill="#99edf2"/>
        <path id="Trazado_873320" data-name="Trazado 873320" d="M31.995,1A7.99,7.99,0,0,0,24,8.995V11.9a7.995,7.995,0,0,1,15.989,0V8.995A7.99,7.99,0,0,0,31.995,1Z" transform="translate(-24 -1)" fill="#7fced3"/>
        <path id="Trazado_873347" data-name="Trazado 873347" d="M39.082,14.634v4.361a6.541,6.541,0,0,1-13.082,0V14.634s3.634,0,3.634-3.634C29.634,11,29.634,14.634,39.082,14.634Z" transform="translate(-24.546 -3.732)" fill="#fff"/>
      </g>
      <g id="Grupo_1098907" data-name="Grupo 1098907">
        <path id="Trazado_873349" data-name="Trazado 873349" d="M32.268,25.989A7.276,7.276,0,0,1,25,18.721V14.361a.727.727,0,0,1,.727-.727,2.8,2.8,0,0,0,2.907-2.907.727.727,0,1,1,1.454,0c0,.006.3,2.907,8.721,2.907a.727.727,0,0,1,.727.727v4.361A7.276,7.276,0,0,1,32.268,25.989ZM26.454,15.026v3.7a5.814,5.814,0,0,0,11.629,0V15.08c-4.931-.1-7.29-1.224-8.418-2.31A4.231,4.231,0,0,1,26.454,15.026Z" transform="translate(-9.011 -2.732)" fill="#4529c7"/>
        <path id="Trazado_873350" data-name="Trazado 873350" d="M44,20.814V19.361a1.454,1.454,0,1,0,0-2.907V15a2.907,2.907,0,0,1,0,5.814Z" transform="translate(-14.202 -4.098)" fill="#4529c7"/>
        <path id="Trazado_873351" data-name="Trazado 873351" d="M24.907,20.814a2.907,2.907,0,0,1,0-5.814v1.454a1.454,1.454,0,0,0,0,2.907Z" transform="translate(-8.191 -4.098)" fill="#4529c7"/>
        <path id="Trazado_873352" data-name="Trazado 873352" d="M40.443,12.355H38.989V8.721a7.268,7.268,0,0,0-14.536,0v3.634H23V8.721a8.721,8.721,0,1,1,17.443,0Z" transform="translate(-8.464)" fill="#4529c7"/>
        <path id="Trazado_873356" data-name="Trazado 873356" d="M33.907,35.088a.727.727,0,0,1-.514-.213l-2.18-2.18A.727.727,0,0,1,31,32.18V30h1.454v1.879l1.454,1.454,1.454-1.454V30h1.454v2.18a.727.727,0,0,1-.213.514l-2.18,2.18A.727.727,0,0,1,33.907,35.088Z" transform="translate(-10.65 -8.196)" fill="#4529c7"/>
        <path id="Trazado_873357" data-name="Trazado 873357" d="M48,52.359H35.907a2.907,2.907,0,0,1,0-5.814h10.9V42.184h1.454v5.088a.727.727,0,0,1-.727.727H35.907a1.454,1.454,0,1,0,0,2.907H48a3.624,3.624,0,0,0,2.725-1.236,3.662,3.662,0,0,0,.879-2.889c-.938-7.2-3.845-10-4.4-10.475L36.444,33.438l.375-1.4,10.9,2.907a.727.727,0,0,1,.235.11c.161.116,3.959,2.918,5.082,11.542A5.1,5.1,0,0,1,48,52.359Z" transform="translate(-11.196 -8.752)" fill="#4529c7"/>
        <path id="Trazado_873358" data-name="Trazado 873358" d="M43.9,59.082H35.18A2.18,2.18,0,0,1,33,56.9V48.18A2.18,2.18,0,0,1,35.18,46H43.9a.727.727,0,0,1,.727.727v4.361H43.175V47.454H35.18a.727.727,0,0,0-.727.727V56.9a.727.727,0,0,0,.727.727h7.995v-2.18h1.454v2.907A.727.727,0,0,1,43.9,59.082Z" transform="translate(-11.196 -12.568)" fill="#4529c7"/>
        <path id="Trazado_873359" data-name="Trazado 873359" d="M37,47h1.454v4.361H37Z" transform="translate(-12.289 -12.841)" fill="#4529c7"/>
        <path id="Trazado_873360" data-name="Trazado 873360" d="M37,59h1.454v2.907H37Z" transform="translate(-12.289 -16.119)" fill="#4529c7"/>
        <path id="Trazado_873361" data-name="Trazado 873361" d="M51.634,62.634H48V61.18h2.907V59h1.454v2.907A.727.727,0,0,1,51.634,62.634Z" transform="translate(-15.294 -16.119)" fill="#4529c7"/>
        <path id="Trazado_873362" data-name="Trazado 873362" d="M6.634,51.082A3.638,3.638,0,0,1,3,47.448a.727.727,0,0,1,.037-.23L5.944,38.5a.727.727,0,0,1,.69-.5h4.361a.727.727,0,0,1,.717.847l-1.443,8.665a3.638,3.638,0,0,1-3.634,3.571Zm-2.18-3.524a2.181,2.181,0,1,0,4.361-.11.668.668,0,0,1,.01-.12l1.312-7.875H7.157Z" transform="translate(-3 -10.382)" fill="#4529c7"/>
        <path id="Trazado_873363" data-name="Trazado 873363" d="M13.42,37.6l-1.028-1.028,1.241-1.241v-.426a.727.727,0,0,1-.727.727,1.368,1.368,0,0,0-1.454,1.454H10a2.755,2.755,0,0,1,.923-2.177A3.071,3.071,0,0,1,10,32.727.727.727,0,0,1,10.726,32H14.36a.727.727,0,0,1,.727.727v2.907a.727.727,0,0,1-.213.514Zm-1.8-4.148a1.3,1.3,0,0,0,1.291.727.727.727,0,0,1,.727.727V33.454Z" transform="translate(-4.912 -8.743)" fill="#4529c7"/>
        <path id="Trazado_873364" data-name="Trazado 873364" d="M14.634,30.814H13.18V26.454h-.727v4.361H11V25.727A.727.727,0,0,1,11.727,25h2.18a.727.727,0,0,1,.727.727Z" transform="translate(-5.186 -6.83)" fill="#4529c7"/>
        <path id="Trazado_873365" data-name="Trazado 873365" d="M9.361,32.634H5.727A.727.727,0,0,1,5,31.907v-2.18A.727.727,0,0,1,5.727,29h4.361v1.454H6.454v.727H9.361Z" transform="translate(-3.546 -7.923)" fill="#4529c7"/>
        <path id="Trazado_873366" data-name="Trazado 873366" d="M6.667,37.875,5.213,36.421A.727.727,0,0,1,5,35.907V33H6.454v2.606l1.241,1.241Z" transform="translate(-3.546 -9.016)" fill="#4529c7"/>
        <path id="Trazado_873367" data-name="Trazado 873367" d="M55.869,55.84A2.8,2.8,0,0,0,53,53.453V52a4.228,4.228,0,0,1,4.311,3.66Z" transform="translate(-16.66 -14.206)" fill="#4529c7"/>
        <path id="Trazado_873368" data-name="Trazado 873368" d="M53,50h5.088v1.454H53Z" transform="translate(-16.66 -13.66)" fill="#4529c7"/>
        <path id="Trazado_873369" data-name="Trazado 873369" d="M0,0H11.986V1.454H0Z" transform="translate(9.28 26.18) rotate(-14.064)" fill="#4529c7"/>
        <path id="Trazado_873370" data-name="Trazado 873370" d="M26.984,59.356H15.355a.727.727,0,0,1-.727-.727V49.762L9.377,56.181a.727.727,0,0,1-.563.267C8.756,56.449,3,56.376,3,49.907H4.454c0,4.238,3.014,4.946,4.036,5.064l6.3-7.7a.727.727,0,0,1,1.289.459V57.9h10.9Z" transform="translate(-3 -12.841)" fill="#4529c7"/>
        <path id="Trazado_873371" data-name="Trazado 873371" d="M11.44,56.991l-1.41-.353a26.736,26.736,0,0,0,.7-5.638h1.454a27.732,27.732,0,0,1-.749,5.991Z" transform="translate(-4.921 -13.934)" fill="#4529c7"/>
        <path id="Trazado_873372" data-name="Trazado 873372" d="M34.995,38.361a.727.727,0,0,1-.514-.213l-1.667-1.667-1.667,1.667a.727.727,0,0,1-1.028,0l-2.907-2.907A.727.727,0,0,1,27,34.727V34h1.454v.426l2.18,2.18L32.3,34.94a.727.727,0,0,1,1.028,0l1.667,1.667,2.18-2.18V34h1.454v.727a.727.727,0,0,1-.213.514l-2.907,2.907A.727.727,0,0,1,34.995,38.361Z" transform="translate(-9.557 -9.289)" fill="#4529c7"/>
        <path id="Trazado_873373" data-name="Trazado 873373" d="M34.714,40.987H33.26a.727.727,0,0,1-.514-.213l-1.454-1.454,1.028-1.028,1.241,1.241h.852l1.241-1.241,1.028,1.028-1.454,1.454a.727.727,0,0,1-.514.213Z" transform="translate(-10.73 -10.462)" fill="#4529c7"/>
        <path id="Trazado_873374" data-name="Trazado 873374" d="M32.5,52.445l-2.18-1.454a.727.727,0,0,1-.305-.768l2.18-9.448,1.417.327L31.548,50.06l1.762,1.175Z" transform="translate(-10.376 -11.14)" fill="#4529c7"/>
        <path id="Trazado_873375" data-name="Trazado 873375" d="M0,0H1.454V4.475H0Z" transform="translate(23.284 29.978) rotate(-12.939)" fill="#4529c7"/>
        <path id="Trazado_873376" data-name="Trazado 873376" d="M13,17h1.454v4.361H13Z" transform="translate(-5.732 -4.645)" fill="#4529c7"/>
        <path id="Trazado_873377" data-name="Trazado 873377" d="M0,0H4.111V1.454H0Z" transform="translate(8.932 16.202) rotate(-45)" fill="#4529c7"/>
        <path id="Trazado_873378" data-name="Trazado 873378" d="M0,0H1.454V4.111H0Z" transform="translate(3.118 14.322) rotate(-45)" fill="#4529c7"/>
      </g>
    </g>
  </g>
</svg>
