<svg xmlns="http://www.w3.org/2000/svg" width="333" height="357" viewBox="0 0 333 357">
  <g id="Grupo_1100566" data-name="Grupo 1100566" transform="translate(5491 7632)">
    <path id="Trazado_877203" data-name="Trazado 877203" d="M0,0H313V39H0Z" transform="translate(-5471 -7461)" fill="#1f47ad"/>
    <path id="Trazado_877204" data-name="Trazado 877204" d="M1.328,0V-11.375H5.039a4.5,4.5,0,0,1,2.789.77A2.722,2.722,0,0,1,8.836-8.3,2.087,2.087,0,0,1,8.383-6.98a2.845,2.845,0,0,1-1.2.887,2.646,2.646,0,0,1,1.77.969A2.965,2.965,0,0,1,9.6-3.211,2.9,2.9,0,0,1,8.586-.824,4.238,4.238,0,0,1,5.836,0ZM2.867-5.336V-1.2H5.836a2.374,2.374,0,0,0,1.637-.52A1.871,1.871,0,0,0,8.055-3.2a2.03,2.03,0,0,0-.594-1.523,2.334,2.334,0,0,0-1.6-.617H2.867Zm0-1.2H5.359a2.044,2.044,0,0,0,1.4-.473A1.659,1.659,0,0,0,7.3-8.328a1.645,1.645,0,0,0-.582-1.379,2.664,2.664,0,0,0-1.676-.457H2.867ZM12.953,0H11.414V-8.453h1.539Zm0-10.617H11.414v-1.57h1.539Zm9.586,6.711A4.645,4.645,0,0,1,21.66-.957,2.9,2.9,0,0,1,19.242.164a3.064,3.064,0,0,1-1.465-.332,2.719,2.719,0,0,1-1.027-.98L16.5,0H15.32V-12.187h1.539v4.734a2.671,2.671,0,0,1,.988-.859,3.03,3.03,0,0,1,1.379-.3,2.809,2.809,0,0,1,2.438,1.25,5.622,5.622,0,0,1,.875,3.289ZM21-4.07a4.666,4.666,0,0,0-.535-2.371,1.762,1.762,0,0,0-1.629-.918,2.014,2.014,0,0,0-1.2.348,2.452,2.452,0,0,0-.777.934v3.664a2.517,2.517,0,0,0,.777.977,2,2,0,0,0,1.215.352,1.829,1.829,0,0,0,1.617-.773A3.552,3.552,0,0,0,21-3.906ZM26.078,0H24.539V-12.187h1.539Zm4.031,0H28.57V-8.453h1.539Zm0-10.617H28.57v-1.57h1.539ZM32.117-4.3a4.654,4.654,0,0,1,1.016-3.09,3.406,3.406,0,0,1,2.758-1.215A3.439,3.439,0,0,1,38.668-7.4,4.639,4.639,0,0,1,39.688-4.3v.172a4.631,4.631,0,0,1-1.016,3.094,3.429,3.429,0,0,1-2.766,1.2,3.436,3.436,0,0,1-2.77-1.207,4.623,4.623,0,0,1-1.02-3.09Zm1.539.172a4.009,4.009,0,0,0,.566,2.219,1.875,1.875,0,0,0,1.684.875,1.87,1.87,0,0,0,1.672-.875,3.988,3.988,0,0,0,.57-2.219V-4.3a3.976,3.976,0,0,0-.574-2.211A1.882,1.882,0,0,0,35.891-7.4a1.856,1.856,0,0,0-1.668.883A4.018,4.018,0,0,0,33.656-4.3Zm10.055-6.359v2.039h1.6v1.141h-1.6V-2.18a1.149,1.149,0,0,0,.246.836.89.89,0,0,0,.652.242,1.429,1.429,0,0,0,.3-.035,2.2,2.2,0,0,0,.273-.074l.211,1.055a1.36,1.36,0,0,1-.508.23,2.562,2.562,0,0,1-.664.09A1.993,1.993,0,0,1,42.727-.4a2.46,2.46,0,0,1-.555-1.777V-7.312H40.828V-8.453h1.344v-2.039ZM50.461.164A3.576,3.576,0,0,1,47.621-1,4.48,4.48,0,0,1,46.6-4.062v-.344a4.386,4.386,0,0,1,1.051-3.012,3.3,3.3,0,0,1,2.566-1.191,3.067,3.067,0,0,1,2.543,1.055,4.345,4.345,0,0,1,.848,2.8v.813H48.2L48.18-3.9a3.494,3.494,0,0,0,.563,2.066,1.965,1.965,0,0,0,1.719.793,3.872,3.872,0,0,0,1.371-.223,3.061,3.061,0,0,0,1.012-.613l.6,1a3.7,3.7,0,0,1-1.2.738A4.762,4.762,0,0,1,50.461.164ZM50.219-7.4a1.673,1.673,0,0,0-1.332.621,2.938,2.938,0,0,0-.645,1.59l.016.039H52.07v-.125A2.462,2.462,0,0,0,51.617-6.8,1.638,1.638,0,0,0,50.219-7.4ZM58.7-1.039a1.81,1.81,0,0,0,1.242-.473,1.494,1.494,0,0,0,.531-1.16h1.391l.023.047a2.428,2.428,0,0,1-.937,1.941A3.312,3.312,0,0,1,58.7.164a3.319,3.319,0,0,1-2.75-1.211,4.674,4.674,0,0,1-.969-3.016v-.328a4.654,4.654,0,0,1,.973-3A3.317,3.317,0,0,1,58.7-8.609a3.189,3.189,0,0,1,2.316.875,2.775,2.775,0,0,1,.871,2.148l-.016.047h-1.4a1.865,1.865,0,0,0-.5-1.316A1.658,1.658,0,0,0,58.7-7.4a1.777,1.777,0,0,0-1.652.879,4.114,4.114,0,0,0-.52,2.129v.328a4.192,4.192,0,0,0,.512,2.148A1.776,1.776,0,0,0,58.7-1.039ZM68.906,0q-.078-.383-.121-.676a4.96,4.96,0,0,1-.051-.59,3.589,3.589,0,0,1-1.121,1.02,2.867,2.867,0,0,1-1.488.41,2.763,2.763,0,0,1-2.012-.676,2.486,2.486,0,0,1-.691-1.863A2.183,2.183,0,0,1,64.4-4.27a4.579,4.579,0,0,1,2.66-.684h1.672v-.836a1.551,1.551,0,0,0-.453-1.176A1.779,1.779,0,0,0,67-7.4a1.859,1.859,0,0,0-1.211.375,1.125,1.125,0,0,0-.461.9l-1.461.016-.016-.047a2.023,2.023,0,0,1,.863-1.687,3.578,3.578,0,0,1,2.371-.766,3.49,3.49,0,0,1,2.313.73,2.588,2.588,0,0,1,.875,2.105V-1.7a7.923,7.923,0,0,0,.047.875A4.5,4.5,0,0,0,70.492,0ZM66.352-1.125a2.739,2.739,0,0,0,1.508-.43,2.042,2.042,0,0,0,.875-.984V-3.914H67.008a2.24,2.24,0,0,0-1.488.469,1.4,1.4,0,0,0-.559,1.1,1.159,1.159,0,0,0,.352.891A1.472,1.472,0,0,0,66.352-1.125Zm11.07-1.148a1.026,1.026,0,0,0-.387-.828,3.732,3.732,0,0,0-1.465-.562,6.146,6.146,0,0,1-2.293-.9,1.814,1.814,0,0,1-.8-1.547,2.229,2.229,0,0,1,.879-1.766,3.433,3.433,0,0,1,2.277-.734,3.4,3.4,0,0,1,2.328.781,2.239,2.239,0,0,1,.852,1.82l-.016.047H77.328a1.331,1.331,0,0,0-.48-.992A1.717,1.717,0,0,0,75.633-7.4a1.751,1.751,0,0,0-1.215.367,1.146,1.146,0,0,0-.4.875.927.927,0,0,0,.348.773,3.848,3.848,0,0,0,1.434.5,6.058,6.058,0,0,1,2.359.93,1.872,1.872,0,0,1,.8,1.57,2.226,2.226,0,0,1-.91,1.836,3.754,3.754,0,0,1-2.379.711,3.715,3.715,0,0,1-2.547-.82,2.341,2.341,0,0,1-.883-1.914l.016-.047h1.469a1.424,1.424,0,0,0,.609,1.2,2.358,2.358,0,0,0,1.336.379,2.1,2.1,0,0,0,1.285-.348A1.063,1.063,0,0,0,77.422-2.273Zm7.75,3.25H83.859l4.75-12.352h1.3ZM97.328-4.93,96.594,0H95.055l1.7-11.367h3.891a3.818,3.818,0,0,1,2.691.836,2.561,2.561,0,0,1,.66,2.4,3.006,3.006,0,0,1-.7,1.559,3.738,3.738,0,0,1-1.5,1,1.987,1.987,0,0,1,1.2,1,2.88,2.88,0,0,1,.188,1.668l-.164,1.07A3.317,3.317,0,0,0,103-.863a1.206,1.206,0,0,0,.309.676L103.273,0h-1.586a1.072,1.072,0,0,1-.273-.773,7.005,7.005,0,0,1,.07-1.07l.156-1.039a1.849,1.849,0,0,0-.309-1.5,1.667,1.667,0,0,0-1.363-.543Zm.18-1.211h2.2a3.157,3.157,0,0,0,1.922-.5,2.214,2.214,0,0,0,.828-1.5,1.741,1.741,0,0,0-.324-1.5,2.21,2.21,0,0,0-1.668-.512H98.117ZM110.492,0l.086-1.211A3.446,3.446,0,0,1,109.4-.187a3.209,3.209,0,0,1-1.5.352,2.33,2.33,0,0,1-2-.895,3.643,3.643,0,0,1-.383-2.738l.742-4.984H107.8l-.75,5a2.963,2.963,0,0,0,.109,1.883,1.311,1.311,0,0,0,1.18.484,2.718,2.718,0,0,0,1.4-.348,2.712,2.712,0,0,0,.969-.98l.9-6.039h1.539L111.875,0Zm6.2-7.242a3.653,3.653,0,0,1,1.207-1.012,3.241,3.241,0,0,1,1.5-.355,2.384,2.384,0,0,1,1.973.809,3.111,3.111,0,0,1,.4,2.465L120.977,0h-1.539l.8-5.3a2.11,2.11,0,0,0-.2-1.605,1.585,1.585,0,0,0-1.289-.449,2.518,2.518,0,0,0-1.234.3,2.729,2.729,0,0,0-.922.832L115.656,0h-1.539l1.266-8.453h1.375Zm10.234-3.25-.3,2.039h1.6l-.172,1.141h-1.6L125.68-2.18a1.052,1.052,0,0,0,.113.848.793.793,0,0,0,.621.23,1.571,1.571,0,0,0,.3-.035A2.1,2.1,0,0,0,127-1.211l.055,1.055a1.634,1.634,0,0,1-.543.23,2.7,2.7,0,0,1-.676.09,1.735,1.735,0,0,1-1.395-.57,2.153,2.153,0,0,1-.3-1.773l.766-5.133h-1.344l.172-1.141h1.344l.3-2.039ZM130.266,0h-1.539l1.266-8.453h1.539Zm1.594-10.617H130.32l.234-1.57h1.539Zm3.359,3.234a3.411,3.411,0,0,1,1.18-.91,3.605,3.605,0,0,1,1.539-.316,2.3,2.3,0,0,1,1.359.391,1.942,1.942,0,0,1,.75,1.164A3.722,3.722,0,0,1,141.27-8.2a3.187,3.187,0,0,1,1.613-.414,2.158,2.158,0,0,1,1.879.895,3.643,3.643,0,0,1,.379,2.66L144.383,0h-1.539l.758-5.07a2.626,2.626,0,0,0-.152-1.793,1.381,1.381,0,0,0-1.215-.5,1.886,1.886,0,0,0-1.34.555,2.884,2.884,0,0,0-.8,1.383.063.063,0,0,0-.008.027v.027L139.281,0h-1.547l.758-5.07a2.571,2.571,0,0,0-.168-1.762,1.339,1.339,0,0,0-1.2-.527,2.236,2.236,0,0,0-1.191.309,2.473,2.473,0,0,0-.832.855l-.93,6.2h-1.539L133.9-8.453h1.375ZM150.094.164a3.069,3.069,0,0,1-2.629-1.18,3.934,3.934,0,0,1-.6-3.047l.055-.344a5.061,5.061,0,0,1,1.488-3.047,3.89,3.89,0,0,1,2.754-1.156,2.624,2.624,0,0,1,2.352,1.07,3.845,3.845,0,0,1,.461,2.789l-.117.813h-5.469a3.355,3.355,0,0,0,.266,2.121,1.7,1.7,0,0,0,1.617.777,4.177,4.177,0,0,0,1.395-.227,3.661,3.661,0,0,0,1.113-.609l.453,1a4.447,4.447,0,0,1-1.3.738A5.139,5.139,0,0,1,150.094.164Zm.891-7.562a1.948,1.948,0,0,0-1.4.625,3.561,3.561,0,0,0-.9,1.578l.016.047h3.8l.016-.125a2.257,2.257,0,0,0-.219-1.535A1.41,1.41,0,0,0,150.984-7.4Zm9.281,5.125A.908.908,0,0,0,160-3.109a3.27,3.27,0,0,0-1.391-.555,5.344,5.344,0,0,1-2.176-.9,1.562,1.562,0,0,1-.582-1.547A2.6,2.6,0,0,1,156.973-7.9a3.935,3.935,0,0,1,2.387-.711,3.006,3.006,0,0,1,2.188.789,1.943,1.943,0,0,1,.633,1.813l-.016.047h-1.477a1.162,1.162,0,0,0-.336-1A1.515,1.515,0,0,0,159.2-7.4a1.974,1.974,0,0,0-1.254.371,1.334,1.334,0,0,0-.543.871.821.821,0,0,0,.234.781,3.446,3.446,0,0,0,1.375.492,5.217,5.217,0,0,1,2.227.93,1.632,1.632,0,0,1,.586,1.57,2.62,2.62,0,0,1-1.164,1.855,4.265,4.265,0,0,1-2.484.691,3.283,3.283,0,0,1-2.395-.828,2.033,2.033,0,0,1-.652-1.906l.016-.047h1.477a1.245,1.245,0,0,0,.445,1.2,2.1,2.1,0,0,0,1.281.379,2.3,2.3,0,0,0,1.313-.352A1.3,1.3,0,0,0,160.266-2.273Z" transform="translate(-5403 -7435)" fill="#fff"/>
    <path id="Trazado_877205" data-name="Trazado 877205" d="M12,0H151a12,12,0,0,1,12,12V51H0V12A12,12,0,0,1,12,0Z" transform="translate(-5490 -7517)" fill="#22d9c2"/>
    <path id="Trazado_877207" data-name="Trazado 877207" d="M6.977-2.453H3.289L2.523,0H.141L3.977-11.375H6.313L10.133,0H7.75ZM3.852-4.242h2.57L5.164-8.25H5.117Zm14.453.25a4.855,4.855,0,0,1-.867,3.016A2.869,2.869,0,0,1,15.016.164a2.707,2.707,0,0,1-1.18-.246A2.423,2.423,0,0,1,12.953-.8V3.25H10.68v-11.7h2.055l.133,1a2.709,2.709,0,0,1,.9-.855,2.441,2.441,0,0,1,1.23-.3,2.813,2.813,0,0,1,2.438,1.227A5.474,5.474,0,0,1,18.3-4.156Zm-2.281-.164a4.09,4.09,0,0,0-.4-1.937,1.3,1.3,0,0,0-1.219-.742,1.722,1.722,0,0,0-.879.211,1.505,1.505,0,0,0-.574.6v3.7a1.4,1.4,0,0,0,.574.547,1.935,1.935,0,0,0,.895.188,1.312,1.312,0,0,0,1.215-.648,3.423,3.423,0,0,0,.387-1.758ZM22.109,0H19.828V-12.187h2.281Zm4.273,0H24.1V-8.453h2.281Zm0-10.477H24.1v-1.711h2.281Zm5.406,8.891a1.27,1.27,0,0,0,.945-.355,1.291,1.291,0,0,0,.352-.949h2.078l.016.047A2.645,2.645,0,0,1,34.227-.7a3.564,3.564,0,0,1-2.437.863,3.6,3.6,0,0,1-2.9-1.2A4.558,4.558,0,0,1,27.867-4.1v-.234A4.588,4.588,0,0,1,28.887-7.4a3.57,3.57,0,0,1,2.887-1.207,3.486,3.486,0,0,1,2.492.891,2.976,2.976,0,0,1,.914,2.344l-.016.047H33.086a1.687,1.687,0,0,0-.348-1.09,1.168,1.168,0,0,0-.965-.434,1.3,1.3,0,0,0-1.254.707,3.878,3.878,0,0,0-.371,1.809V-4.1a3.863,3.863,0,0,0,.371,1.82A1.32,1.32,0,0,0,31.789-1.586ZM41.492,0a4.8,4.8,0,0,1-.215-.609,4.239,4.239,0,0,1-.129-.656,3.127,3.127,0,0,1-.93,1.023,2.33,2.33,0,0,1-1.375.406A2.855,2.855,0,0,1,36.8-.52a2.449,2.449,0,0,1-.719-1.863,2.229,2.229,0,0,1,.957-1.926,4.78,4.78,0,0,1,2.793-.684h1.281v-.672a1.315,1.315,0,0,0-.32-.945,1.257,1.257,0,0,0-.953-.336,1.239,1.239,0,0,0-.855.27.941.941,0,0,0-.3.738h-2.2l-.016-.047A2.144,2.144,0,0,1,37.4-7.832a4.055,4.055,0,0,1,2.582-.777,3.784,3.784,0,0,1,2.465.766,2.667,2.667,0,0,1,.941,2.2v3.492a6.605,6.605,0,0,0,.09,1.117A5.606,5.606,0,0,0,43.766,0ZM39.406-1.523a1.944,1.944,0,0,0,1.063-.3,1.6,1.6,0,0,0,.641-.687V-3.7H39.828a1.519,1.519,0,0,0-1.1.359,1.181,1.181,0,0,0-.371.883.881.881,0,0,0,.277.684A1.1,1.1,0,0,0,39.406-1.523Zm9.227-.062a1.27,1.27,0,0,0,.945-.355,1.291,1.291,0,0,0,.352-.949h2.078l.016.047A2.645,2.645,0,0,1,51.07-.7a3.564,3.564,0,0,1-2.437.863,3.6,3.6,0,0,1-2.9-1.2A4.558,4.558,0,0,1,44.711-4.1v-.234A4.588,4.588,0,0,1,45.73-7.4a3.57,3.57,0,0,1,2.887-1.207,3.486,3.486,0,0,1,2.492.891,2.976,2.976,0,0,1,.914,2.344l-.016.047H49.93a1.687,1.687,0,0,0-.348-1.09,1.168,1.168,0,0,0-.965-.434,1.3,1.3,0,0,0-1.254.707,3.878,3.878,0,0,0-.371,1.809V-4.1a3.863,3.863,0,0,0,.371,1.82A1.32,1.32,0,0,0,48.633-1.586ZM55.75,0H53.469V-8.453H55.75Zm0-10.477H53.469v-1.711H55.75ZM57.273-4.3a4.536,4.536,0,0,1,1.055-3.1A3.676,3.676,0,0,1,61.25-8.609a3.715,3.715,0,0,1,2.938,1.2A4.512,4.512,0,0,1,65.25-4.3v.164a4.519,4.519,0,0,1-1.059,3.105,3.7,3.7,0,0,1-2.926,1.2,3.709,3.709,0,0,1-2.934-1.2,4.519,4.519,0,0,1-1.059-3.105Zm2.273.164a3.677,3.677,0,0,0,.406,1.855,1.4,1.4,0,0,0,1.313.7,1.389,1.389,0,0,0,1.293-.7,3.653,3.653,0,0,0,.41-1.852V-4.3a3.616,3.616,0,0,0-.414-1.836,1.4,1.4,0,0,0-1.3-.711,1.384,1.384,0,0,0-1.293.715,3.648,3.648,0,0,0-.41,1.832Zm2.164-7.922H64.25l.016.047L62.1-9.984H60.156Zm7.031,3.609.1,1.211A3.092,3.092,0,0,1,69.883-8.25a2.7,2.7,0,0,1,1.383-.359,2.513,2.513,0,0,1,2,.824,3.908,3.908,0,0,1,.719,2.605V0H71.7V-5.172a2.024,2.024,0,0,0-.316-1.285,1.166,1.166,0,0,0-.949-.379,1.992,1.992,0,0,0-.895.191,1.746,1.746,0,0,0-.637.527V0H66.617V-8.453ZM87.344,0H79.711V-1.492l3.523-3.984a8.9,8.9,0,0,0,1.121-1.574,2.616,2.616,0,0,0,.332-1.184,1.7,1.7,0,0,0-.352-1.125,1.294,1.294,0,0,0-1.055-.422,1.354,1.354,0,0,0-1.148.539,2.208,2.208,0,0,0-.406,1.367H79.508l-.016-.047a3.379,3.379,0,0,1,1-2.566,3.746,3.746,0,0,1,2.789-1.051A3.858,3.858,0,0,1,86-10.645a3.111,3.111,0,0,1,.969,2.4,3.379,3.379,0,0,1-.543,1.867,21.021,21.021,0,0,1-1.871,2.336L82.68-1.789l.016.039h4.648Z" transform="translate(-5453.425 -7485)" fill="#12263f"/>
    <path id="Trazado_877206" data-name="Trazado 877206" d="M12,0H151a12,12,0,0,1,12,12V51H0V12A12,12,0,0,1,12,0Z" transform="translate(-5321 -7517)" fill="#1f47ad"/>
    <path id="Trazado_877208" data-name="Trazado 877208" d="M6.977-2.453H3.289L2.523,0H.141L3.977-11.375H6.313L10.133,0H7.75ZM3.852-4.242h2.57L5.164-8.25H5.117Zm14.453.25a4.855,4.855,0,0,1-.867,3.016A2.869,2.869,0,0,1,15.016.164a2.707,2.707,0,0,1-1.18-.246A2.423,2.423,0,0,1,12.953-.8V3.25H10.68v-11.7h2.055l.133,1a2.709,2.709,0,0,1,.9-.855,2.441,2.441,0,0,1,1.23-.3,2.813,2.813,0,0,1,2.438,1.227A5.474,5.474,0,0,1,18.3-4.156Zm-2.281-.164a4.09,4.09,0,0,0-.4-1.937,1.3,1.3,0,0,0-1.219-.742,1.722,1.722,0,0,0-.879.211,1.505,1.505,0,0,0-.574.6v3.7a1.4,1.4,0,0,0,.574.547,1.935,1.935,0,0,0,.895.188,1.312,1.312,0,0,0,1.215-.648,3.423,3.423,0,0,0,.387-1.758ZM22.109,0H19.828V-12.187h2.281Zm4.273,0H24.1V-8.453h2.281Zm0-10.477H24.1v-1.711h2.281Zm5.406,8.891a1.27,1.27,0,0,0,.945-.355,1.291,1.291,0,0,0,.352-.949h2.078l.016.047A2.645,2.645,0,0,1,34.227-.7a3.564,3.564,0,0,1-2.437.863,3.6,3.6,0,0,1-2.9-1.2A4.558,4.558,0,0,1,27.867-4.1v-.234A4.588,4.588,0,0,1,28.887-7.4a3.57,3.57,0,0,1,2.887-1.207,3.486,3.486,0,0,1,2.492.891,2.976,2.976,0,0,1,.914,2.344l-.016.047H33.086a1.687,1.687,0,0,0-.348-1.09,1.168,1.168,0,0,0-.965-.434,1.3,1.3,0,0,0-1.254.707,3.878,3.878,0,0,0-.371,1.809V-4.1a3.863,3.863,0,0,0,.371,1.82A1.32,1.32,0,0,0,31.789-1.586ZM41.492,0a4.8,4.8,0,0,1-.215-.609,4.239,4.239,0,0,1-.129-.656,3.127,3.127,0,0,1-.93,1.023,2.33,2.33,0,0,1-1.375.406A2.855,2.855,0,0,1,36.8-.52a2.449,2.449,0,0,1-.719-1.863,2.229,2.229,0,0,1,.957-1.926,4.78,4.78,0,0,1,2.793-.684h1.281v-.672a1.315,1.315,0,0,0-.32-.945,1.257,1.257,0,0,0-.953-.336,1.239,1.239,0,0,0-.855.27.941.941,0,0,0-.3.738h-2.2l-.016-.047A2.144,2.144,0,0,1,37.4-7.832a4.055,4.055,0,0,1,2.582-.777,3.784,3.784,0,0,1,2.465.766,2.667,2.667,0,0,1,.941,2.2v3.492a6.605,6.605,0,0,0,.09,1.117A5.606,5.606,0,0,0,43.766,0ZM39.406-1.523a1.944,1.944,0,0,0,1.063-.3,1.6,1.6,0,0,0,.641-.687V-3.7H39.828a1.519,1.519,0,0,0-1.1.359,1.181,1.181,0,0,0-.371.883.881.881,0,0,0,.277.684A1.1,1.1,0,0,0,39.406-1.523Zm9.227-.062a1.27,1.27,0,0,0,.945-.355,1.291,1.291,0,0,0,.352-.949h2.078l.016.047A2.645,2.645,0,0,1,51.07-.7a3.564,3.564,0,0,1-2.437.863,3.6,3.6,0,0,1-2.9-1.2A4.558,4.558,0,0,1,44.711-4.1v-.234A4.588,4.588,0,0,1,45.73-7.4a3.57,3.57,0,0,1,2.887-1.207,3.486,3.486,0,0,1,2.492.891,2.976,2.976,0,0,1,.914,2.344l-.016.047H49.93a1.687,1.687,0,0,0-.348-1.09,1.168,1.168,0,0,0-.965-.434,1.3,1.3,0,0,0-1.254.707,3.878,3.878,0,0,0-.371,1.809V-4.1a3.863,3.863,0,0,0,.371,1.82A1.32,1.32,0,0,0,48.633-1.586ZM55.75,0H53.469V-8.453H55.75Zm0-10.477H53.469v-1.711H55.75ZM57.273-4.3a4.536,4.536,0,0,1,1.055-3.1A3.676,3.676,0,0,1,61.25-8.609a3.715,3.715,0,0,1,2.938,1.2A4.512,4.512,0,0,1,65.25-4.3v.164a4.519,4.519,0,0,1-1.059,3.105,3.7,3.7,0,0,1-2.926,1.2,3.709,3.709,0,0,1-2.934-1.2,4.519,4.519,0,0,1-1.059-3.105Zm2.273.164a3.677,3.677,0,0,0,.406,1.855,1.4,1.4,0,0,0,1.313.7,1.389,1.389,0,0,0,1.293-.7,3.653,3.653,0,0,0,.41-1.852V-4.3a3.616,3.616,0,0,0-.414-1.836,1.4,1.4,0,0,0-1.3-.711,1.384,1.384,0,0,0-1.293.715,3.648,3.648,0,0,0-.41,1.832Zm2.164-7.922H64.25l.016.047L62.1-9.984H60.156Zm7.031,3.609.1,1.211A3.092,3.092,0,0,1,69.883-8.25a2.7,2.7,0,0,1,1.383-.359,2.513,2.513,0,0,1,2,.824,3.908,3.908,0,0,1,.719,2.605V0H71.7V-5.172a2.024,2.024,0,0,0-.316-1.285,1.166,1.166,0,0,0-.949-.379,1.992,1.992,0,0,0-.895.191,1.746,1.746,0,0,0-.637.527V0H66.617V-8.453ZM83.32-6.687a1.578,1.578,0,0,0,1.207-.422A1.672,1.672,0,0,0,84.922-8.3a1.455,1.455,0,0,0-.414-1.062,1.546,1.546,0,0,0-1.156-.422A1.514,1.514,0,0,0,82.3-9.4a1.255,1.255,0,0,0-.426.977h-2.2l-.016-.047a2.582,2.582,0,0,1,1.031-2.2,4.115,4.115,0,0,1,2.664-.867,4.362,4.362,0,0,1,2.8.832A2.879,2.879,0,0,1,87.2-8.32a2.474,2.474,0,0,1-.449,1.434,3.069,3.069,0,0,1-1.23,1.027,2.873,2.873,0,0,1,1.375,1.02,2.784,2.784,0,0,1,.484,1.652A2.964,2.964,0,0,1,86.246-.73a4.518,4.518,0,0,1-2.895.895A4.51,4.51,0,0,1,80.633-.68a2.663,2.663,0,0,1-1.125-2.367l.016-.047h2.219a1.433,1.433,0,0,0,.449,1.074,1.6,1.6,0,0,0,1.16.434,1.76,1.76,0,0,0,1.266-.461A1.538,1.538,0,0,0,85.1-3.211a1.766,1.766,0,0,0-.453-1.332,1.85,1.85,0,0,0-1.328-.434H82.063V-6.687Z" transform="translate(-5284 -7485)" fill="#fff"/>
    <g id="Grupo_1100547" data-name="Grupo 1100547" transform="translate(-6115 -10816)">
      <path id="Trazado_876735" data-name="Trazado 876735" d="M19.5,0A19.5,19.5,0,1,1,0,19.5,19.5,19.5,0,0,1,19.5,0Z" transform="translate(624 3355)" fill="#f0c518"/>
      <g id="layer1" transform="translate(632.042 3082.405)">
        <path id="path3032" d="M5.1,280.6a.381.381,0,0,0-.379.383v3.429H1.672a1.149,1.149,0,0,0-1.143,1.143v.762a.381.381,0,1,0,.762,0v-.762a.372.372,0,0,1,.381-.381H4.721v.762H2.434a.381.381,0,0,0-.381.381v10.667a.381.381,0,0,0,.381.381H21.483a.381.381,0,0,0,.381-.381V286.311a.381.381,0,0,0-.381-.381H19.2v-.762h3.046a.372.372,0,0,1,.381.381v13.715a.372.372,0,0,1-.381.381H1.672a.372.372,0,0,1-.381-.381V289.74a.381.381,0,1,0-.762,0v9.524a1.149,1.149,0,0,0,1.143,1.143H9.626a5,5,0,0,1-1.263,2.285H7.386a.381.381,0,0,0,0,.762h9.143a.381.381,0,0,0,0-.762h-.975a4.988,4.988,0,0,1-1.276-2.285h7.966a1.149,1.149,0,0,0,1.143-1.143V285.549a1.149,1.149,0,0,0-1.143-1.143H19.2v-3.429a.381.381,0,0,0-.382-.383H15.388a.381.381,0,0,0-.383.383v1.9H12.339v-.762a.383.383,0,0,0-.362-.379H8.911v-.763a.381.381,0,0,0-.382-.383Zm.382.763H8.149v1.524H5.483Zm10.285,0h2.669v8.384H15.767ZM8.911,282.5h2.666v7.239H8.911Zm-3.428,1.142H8.149v.762H5.483Zm6.856,0H15v1.525H12.339Zm-6.856,1.524H8.149v8.381H5.483Zm6.856.763H15v.759H12.339Zm-9.524.76H4.721v6.857H3.959a.381.381,0,0,0-.383.382v1.525a.381.381,0,0,0,.383.38h16a.381.381,0,0,0,.382-.38v-1.525a.381.381,0,0,0-.382-.383H19.2v-6.857h1.9V296.6H2.815ZM.9,287.449a.381.381,0,0,0-.375.386v.381a.381.381,0,1,0,.762,0v-.381a.381.381,0,0,0-.387-.386Zm11.434,0H15v6.1H12.339ZM8.911,290.5h2.666v.759H8.911Zm6.857,0h2.669v.759H15.767Zm-6.857,1.521h2.666v1.525H8.911Zm6.857,0h2.669v1.525H15.767ZM4.338,294.311h15.24v.763H4.338Zm6.857,3.81a.381.381,0,0,0,0,.762H12.72a.381.381,0,0,0,0-.762Zm-.786,2.287h3.1a4.894,4.894,0,0,0,1.056,2.285H9.349a4.807,4.807,0,0,0,1.061-2.285Z" fill="#3a1d71"/>
      </g>
    </g>
    <path id="Trazado_877209" data-name="Trazado 877209" d="M0,0H313V39H0Z" transform="translate(-5471 -7576)" fill="#472c79"/>
    <path id="Trazado_877211" data-name="Trazado 877211" d="M12,0H321a12,12,0,0,1,12,12V51H0V12A12,12,0,0,1,12,0Z" transform="translate(-5491 -7632)" fill="#472c79"/>
    <path id="Trazado_877212" data-name="Trazado 877212" d="M6.977-2.453H3.289L2.523,0H.141L3.977-11.375H6.313L10.133,0H7.75ZM3.852-4.242h2.57L5.164-8.25H5.117Zm14.453.25a4.855,4.855,0,0,1-.867,3.016A2.869,2.869,0,0,1,15.016.164a2.707,2.707,0,0,1-1.18-.246A2.423,2.423,0,0,1,12.953-.8V3.25H10.68v-11.7h2.055l.133,1a2.709,2.709,0,0,1,.9-.855,2.441,2.441,0,0,1,1.23-.3,2.813,2.813,0,0,1,2.438,1.227A5.474,5.474,0,0,1,18.3-4.156Zm-2.281-.164a4.09,4.09,0,0,0-.4-1.937,1.3,1.3,0,0,0-1.219-.742,1.722,1.722,0,0,0-.879.211,1.505,1.505,0,0,0-.574.6v3.7a1.4,1.4,0,0,0,.574.547,1.935,1.935,0,0,0,.895.188,1.312,1.312,0,0,0,1.215-.648,3.423,3.423,0,0,0,.387-1.758ZM22.109,0H19.828V-12.187h2.281Zm4.273,0H24.1V-8.453h2.281Zm0-10.477H24.1v-1.711h2.281Zm5.406,8.891a1.27,1.27,0,0,0,.945-.355,1.291,1.291,0,0,0,.352-.949h2.078l.016.047A2.645,2.645,0,0,1,34.227-.7a3.564,3.564,0,0,1-2.437.863,3.6,3.6,0,0,1-2.9-1.2A4.558,4.558,0,0,1,27.867-4.1v-.234A4.588,4.588,0,0,1,28.887-7.4a3.57,3.57,0,0,1,2.887-1.207,3.486,3.486,0,0,1,2.492.891,2.976,2.976,0,0,1,.914,2.344l-.016.047H33.086a1.687,1.687,0,0,0-.348-1.09,1.168,1.168,0,0,0-.965-.434,1.3,1.3,0,0,0-1.254.707,3.878,3.878,0,0,0-.371,1.809V-4.1a3.863,3.863,0,0,0,.371,1.82A1.32,1.32,0,0,0,31.789-1.586ZM41.492,0a4.8,4.8,0,0,1-.215-.609,4.239,4.239,0,0,1-.129-.656,3.127,3.127,0,0,1-.93,1.023,2.33,2.33,0,0,1-1.375.406A2.855,2.855,0,0,1,36.8-.52a2.449,2.449,0,0,1-.719-1.863,2.229,2.229,0,0,1,.957-1.926,4.78,4.78,0,0,1,2.793-.684h1.281v-.672a1.315,1.315,0,0,0-.32-.945,1.257,1.257,0,0,0-.953-.336,1.239,1.239,0,0,0-.855.27.941.941,0,0,0-.3.738h-2.2l-.016-.047A2.144,2.144,0,0,1,37.4-7.832a4.055,4.055,0,0,1,2.582-.777,3.784,3.784,0,0,1,2.465.766,2.667,2.667,0,0,1,.941,2.2v3.492a6.605,6.605,0,0,0,.09,1.117A5.606,5.606,0,0,0,43.766,0ZM39.406-1.523a1.944,1.944,0,0,0,1.063-.3,1.6,1.6,0,0,0,.641-.687V-3.7H39.828a1.519,1.519,0,0,0-1.1.359,1.181,1.181,0,0,0-.371.883.881.881,0,0,0,.277.684A1.1,1.1,0,0,0,39.406-1.523Zm9.227-.062a1.27,1.27,0,0,0,.945-.355,1.291,1.291,0,0,0,.352-.949h2.078l.016.047A2.645,2.645,0,0,1,51.07-.7a3.564,3.564,0,0,1-2.437.863,3.6,3.6,0,0,1-2.9-1.2A4.558,4.558,0,0,1,44.711-4.1v-.234A4.588,4.588,0,0,1,45.73-7.4a3.57,3.57,0,0,1,2.887-1.207,3.486,3.486,0,0,1,2.492.891,2.976,2.976,0,0,1,.914,2.344l-.016.047H49.93a1.687,1.687,0,0,0-.348-1.09,1.168,1.168,0,0,0-.965-.434,1.3,1.3,0,0,0-1.254.707,3.878,3.878,0,0,0-.371,1.809V-4.1a3.863,3.863,0,0,0,.371,1.82A1.32,1.32,0,0,0,48.633-1.586ZM55.75,0H53.469V-8.453H55.75Zm0-10.477H53.469v-1.711H55.75ZM57.273-4.3a4.536,4.536,0,0,1,1.055-3.1A3.676,3.676,0,0,1,61.25-8.609a3.715,3.715,0,0,1,2.938,1.2A4.512,4.512,0,0,1,65.25-4.3v.164a4.519,4.519,0,0,1-1.059,3.105,3.7,3.7,0,0,1-2.926,1.2,3.709,3.709,0,0,1-2.934-1.2,4.519,4.519,0,0,1-1.059-3.105Zm2.273.164a3.677,3.677,0,0,0,.406,1.855,1.4,1.4,0,0,0,1.313.7,1.389,1.389,0,0,0,1.293-.7,3.653,3.653,0,0,0,.41-1.852V-4.3a3.616,3.616,0,0,0-.414-1.836,1.4,1.4,0,0,0-1.3-.711,1.384,1.384,0,0,0-1.293.715,3.648,3.648,0,0,0-.41,1.832Zm2.164-7.922H64.25l.016.047L62.1-9.984H60.156Zm7.031,3.609.1,1.211A3.092,3.092,0,0,1,69.883-8.25a2.7,2.7,0,0,1,1.383-.359,2.513,2.513,0,0,1,2,.824,3.908,3.908,0,0,1,.719,2.605V0H71.7V-5.172a2.024,2.024,0,0,0-.316-1.285,1.166,1.166,0,0,0-.949-.379,1.992,1.992,0,0,0-.895.191,1.746,1.746,0,0,0-.637.527V0H66.617V-8.453ZM85.016,0H82.742V-9.391H80.391v-1.742l4.625-.406Z" transform="translate(-5369 -7601)" fill="#fff"/>
    <path id="Trazado_877210" data-name="Trazado 877210" d="M1.328,0V-11.375H5.039a4.5,4.5,0,0,1,2.789.77A2.722,2.722,0,0,1,8.836-8.3,2.087,2.087,0,0,1,8.383-6.98a2.845,2.845,0,0,1-1.2.887,2.646,2.646,0,0,1,1.77.969A2.965,2.965,0,0,1,9.6-3.211,2.9,2.9,0,0,1,8.586-.824,4.238,4.238,0,0,1,5.836,0ZM2.867-5.336V-1.2H5.836a2.374,2.374,0,0,0,1.637-.52A1.871,1.871,0,0,0,8.055-3.2a2.03,2.03,0,0,0-.594-1.523,2.334,2.334,0,0,0-1.6-.617H2.867Zm0-1.2H5.359a2.044,2.044,0,0,0,1.4-.473A1.659,1.659,0,0,0,7.3-8.328a1.645,1.645,0,0,0-.582-1.379,2.664,2.664,0,0,0-1.676-.457H2.867ZM12.953,0H11.414V-8.453h1.539Zm0-10.617H11.414v-1.57h1.539Zm9.586,6.711A4.645,4.645,0,0,1,21.66-.957,2.9,2.9,0,0,1,19.242.164a3.064,3.064,0,0,1-1.465-.332,2.719,2.719,0,0,1-1.027-.98L16.5,0H15.32V-12.187h1.539v4.734a2.671,2.671,0,0,1,.988-.859,3.03,3.03,0,0,1,1.379-.3,2.809,2.809,0,0,1,2.438,1.25,5.622,5.622,0,0,1,.875,3.289ZM21-4.07a4.666,4.666,0,0,0-.535-2.371,1.762,1.762,0,0,0-1.629-.918,2.014,2.014,0,0,0-1.2.348,2.452,2.452,0,0,0-.777.934v3.664a2.517,2.517,0,0,0,.777.977,2,2,0,0,0,1.215.352,1.829,1.829,0,0,0,1.617-.773A3.552,3.552,0,0,0,21-3.906ZM26.078,0H24.539V-12.187h1.539Zm4.031,0H28.57V-8.453h1.539Zm0-10.617H28.57v-1.57h1.539ZM32.117-4.3a4.654,4.654,0,0,1,1.016-3.09,3.406,3.406,0,0,1,2.758-1.215A3.439,3.439,0,0,1,38.668-7.4,4.639,4.639,0,0,1,39.688-4.3v.172a4.631,4.631,0,0,1-1.016,3.094,3.429,3.429,0,0,1-2.766,1.2,3.436,3.436,0,0,1-2.77-1.207,4.623,4.623,0,0,1-1.02-3.09Zm1.539.172a4.009,4.009,0,0,0,.566,2.219,1.875,1.875,0,0,0,1.684.875,1.87,1.87,0,0,0,1.672-.875,3.988,3.988,0,0,0,.57-2.219V-4.3a3.976,3.976,0,0,0-.574-2.211A1.882,1.882,0,0,0,35.891-7.4a1.856,1.856,0,0,0-1.668.883A4.018,4.018,0,0,0,33.656-4.3Zm10.055-6.359v2.039h1.6v1.141h-1.6V-2.18a1.149,1.149,0,0,0,.246.836.89.89,0,0,0,.652.242,1.429,1.429,0,0,0,.3-.035,2.2,2.2,0,0,0,.273-.074l.211,1.055a1.36,1.36,0,0,1-.508.23,2.562,2.562,0,0,1-.664.09A1.993,1.993,0,0,1,42.727-.4a2.46,2.46,0,0,1-.555-1.777V-7.312H40.828V-8.453h1.344v-2.039ZM50.461.164A3.576,3.576,0,0,1,47.621-1,4.48,4.48,0,0,1,46.6-4.062v-.344a4.386,4.386,0,0,1,1.051-3.012,3.3,3.3,0,0,1,2.566-1.191,3.067,3.067,0,0,1,2.543,1.055,4.345,4.345,0,0,1,.848,2.8v.813H48.2L48.18-3.9a3.494,3.494,0,0,0,.563,2.066,1.965,1.965,0,0,0,1.719.793,3.872,3.872,0,0,0,1.371-.223,3.061,3.061,0,0,0,1.012-.613l.6,1a3.7,3.7,0,0,1-1.2.738A4.762,4.762,0,0,1,50.461.164ZM50.219-7.4a1.673,1.673,0,0,0-1.332.621,2.938,2.938,0,0,0-.645,1.59l.016.039H52.07v-.125A2.462,2.462,0,0,0,51.617-6.8,1.638,1.638,0,0,0,50.219-7.4ZM58.7-1.039a1.81,1.81,0,0,0,1.242-.473,1.494,1.494,0,0,0,.531-1.16h1.391l.023.047a2.428,2.428,0,0,1-.937,1.941A3.312,3.312,0,0,1,58.7.164a3.319,3.319,0,0,1-2.75-1.211,4.674,4.674,0,0,1-.969-3.016v-.328a4.654,4.654,0,0,1,.973-3A3.317,3.317,0,0,1,58.7-8.609a3.189,3.189,0,0,1,2.316.875,2.775,2.775,0,0,1,.871,2.148l-.016.047h-1.4a1.865,1.865,0,0,0-.5-1.316A1.658,1.658,0,0,0,58.7-7.4a1.777,1.777,0,0,0-1.652.879,4.114,4.114,0,0,0-.52,2.129v.328a4.192,4.192,0,0,0,.512,2.148A1.776,1.776,0,0,0,58.7-1.039ZM68.906,0q-.078-.383-.121-.676a4.96,4.96,0,0,1-.051-.59,3.589,3.589,0,0,1-1.121,1.02,2.867,2.867,0,0,1-1.488.41,2.763,2.763,0,0,1-2.012-.676,2.486,2.486,0,0,1-.691-1.863A2.183,2.183,0,0,1,64.4-4.27a4.579,4.579,0,0,1,2.66-.684h1.672v-.836a1.551,1.551,0,0,0-.453-1.176A1.779,1.779,0,0,0,67-7.4a1.859,1.859,0,0,0-1.211.375,1.125,1.125,0,0,0-.461.9l-1.461.016-.016-.047a2.023,2.023,0,0,1,.863-1.687,3.578,3.578,0,0,1,2.371-.766,3.49,3.49,0,0,1,2.313.73,2.588,2.588,0,0,1,.875,2.105V-1.7a7.923,7.923,0,0,0,.047.875A4.5,4.5,0,0,0,70.492,0ZM66.352-1.125a2.739,2.739,0,0,0,1.508-.43,2.042,2.042,0,0,0,.875-.984V-3.914H67.008a2.24,2.24,0,0,0-1.488.469,1.4,1.4,0,0,0-.559,1.1,1.159,1.159,0,0,0,.352.891A1.472,1.472,0,0,0,66.352-1.125Zm11.07-1.148a1.026,1.026,0,0,0-.387-.828,3.732,3.732,0,0,0-1.465-.562,6.146,6.146,0,0,1-2.293-.9,1.814,1.814,0,0,1-.8-1.547,2.229,2.229,0,0,1,.879-1.766,3.433,3.433,0,0,1,2.277-.734,3.4,3.4,0,0,1,2.328.781,2.239,2.239,0,0,1,.852,1.82l-.016.047H77.328a1.331,1.331,0,0,0-.48-.992A1.717,1.717,0,0,0,75.633-7.4a1.751,1.751,0,0,0-1.215.367,1.146,1.146,0,0,0-.4.875.927.927,0,0,0,.348.773,3.848,3.848,0,0,0,1.434.5,6.058,6.058,0,0,1,2.359.93,1.872,1.872,0,0,1,.8,1.57,2.226,2.226,0,0,1-.91,1.836,3.754,3.754,0,0,1-2.379.711,3.715,3.715,0,0,1-2.547-.82,2.341,2.341,0,0,1-.883-1.914l.016-.047h1.469a1.424,1.424,0,0,0,.609,1.2,2.358,2.358,0,0,0,1.336.379,2.1,2.1,0,0,0,1.285-.348A1.063,1.063,0,0,0,77.422-2.273Zm7.75,3.25H83.859l4.75-12.352h1.3ZM97.328-4.93,96.594,0H95.055l1.7-11.367h3.891a3.818,3.818,0,0,1,2.691.836,2.561,2.561,0,0,1,.66,2.4,3.006,3.006,0,0,1-.7,1.559,3.738,3.738,0,0,1-1.5,1,1.987,1.987,0,0,1,1.2,1,2.88,2.88,0,0,1,.188,1.668l-.164,1.07A3.317,3.317,0,0,0,103-.863a1.206,1.206,0,0,0,.309.676L103.273,0h-1.586a1.072,1.072,0,0,1-.273-.773,7.005,7.005,0,0,1,.07-1.07l.156-1.039a1.849,1.849,0,0,0-.309-1.5,1.667,1.667,0,0,0-1.363-.543Zm.18-1.211h2.2a3.157,3.157,0,0,0,1.922-.5,2.214,2.214,0,0,0,.828-1.5,1.741,1.741,0,0,0-.324-1.5,2.21,2.21,0,0,0-1.668-.512H98.117ZM110.492,0l.086-1.211A3.446,3.446,0,0,1,109.4-.187a3.209,3.209,0,0,1-1.5.352,2.33,2.33,0,0,1-2-.895,3.643,3.643,0,0,1-.383-2.738l.742-4.984H107.8l-.75,5a2.963,2.963,0,0,0,.109,1.883,1.311,1.311,0,0,0,1.18.484,2.718,2.718,0,0,0,1.4-.348,2.712,2.712,0,0,0,.969-.98l.9-6.039h1.539L111.875,0Zm6.2-7.242a3.653,3.653,0,0,1,1.207-1.012,3.241,3.241,0,0,1,1.5-.355,2.384,2.384,0,0,1,1.973.809,3.111,3.111,0,0,1,.4,2.465L120.977,0h-1.539l.8-5.3a2.11,2.11,0,0,0-.2-1.605,1.585,1.585,0,0,0-1.289-.449,2.518,2.518,0,0,0-1.234.3,2.729,2.729,0,0,0-.922.832L115.656,0h-1.539l1.266-8.453h1.375Zm10.234-3.25-.3,2.039h1.6l-.172,1.141h-1.6L125.68-2.18a1.052,1.052,0,0,0,.113.848.793.793,0,0,0,.621.23,1.571,1.571,0,0,0,.3-.035A2.1,2.1,0,0,0,127-1.211l.055,1.055a1.634,1.634,0,0,1-.543.23,2.7,2.7,0,0,1-.676.09,1.735,1.735,0,0,1-1.395-.57,2.153,2.153,0,0,1-.3-1.773l.766-5.133h-1.344l.172-1.141h1.344l.3-2.039ZM130.266,0h-1.539l1.266-8.453h1.539Zm1.594-10.617H130.32l.234-1.57h1.539Zm3.359,3.234a3.411,3.411,0,0,1,1.18-.91,3.605,3.605,0,0,1,1.539-.316,2.3,2.3,0,0,1,1.359.391,1.942,1.942,0,0,1,.75,1.164A3.722,3.722,0,0,1,141.27-8.2a3.187,3.187,0,0,1,1.613-.414,2.158,2.158,0,0,1,1.879.895,3.643,3.643,0,0,1,.379,2.66L144.383,0h-1.539l.758-5.07a2.626,2.626,0,0,0-.152-1.793,1.381,1.381,0,0,0-1.215-.5,1.886,1.886,0,0,0-1.34.555,2.884,2.884,0,0,0-.8,1.383.063.063,0,0,0-.008.027v.027L139.281,0h-1.547l.758-5.07a2.571,2.571,0,0,0-.168-1.762,1.339,1.339,0,0,0-1.2-.527,2.236,2.236,0,0,0-1.191.309,2.473,2.473,0,0,0-.832.855l-.93,6.2h-1.539L133.9-8.453h1.375ZM150.094.164a3.069,3.069,0,0,1-2.629-1.18,3.934,3.934,0,0,1-.6-3.047l.055-.344a5.061,5.061,0,0,1,1.488-3.047,3.89,3.89,0,0,1,2.754-1.156,2.624,2.624,0,0,1,2.352,1.07,3.845,3.845,0,0,1,.461,2.789l-.117.813h-5.469a3.355,3.355,0,0,0,.266,2.121,1.7,1.7,0,0,0,1.617.777,4.177,4.177,0,0,0,1.395-.227,3.661,3.661,0,0,0,1.113-.609l.453,1a4.447,4.447,0,0,1-1.3.738A5.139,5.139,0,0,1,150.094.164Zm.891-7.562a1.948,1.948,0,0,0-1.4.625,3.561,3.561,0,0,0-.9,1.578l.016.047h3.8l.016-.125a2.257,2.257,0,0,0-.219-1.535A1.41,1.41,0,0,0,150.984-7.4Zm9.281,5.125A.908.908,0,0,0,160-3.109a3.27,3.27,0,0,0-1.391-.555,5.344,5.344,0,0,1-2.176-.9,1.562,1.562,0,0,1-.582-1.547A2.6,2.6,0,0,1,156.973-7.9a3.935,3.935,0,0,1,2.387-.711,3.006,3.006,0,0,1,2.188.789,1.943,1.943,0,0,1,.633,1.813l-.016.047h-1.477a1.162,1.162,0,0,0-.336-1A1.515,1.515,0,0,0,159.2-7.4a1.974,1.974,0,0,0-1.254.371,1.334,1.334,0,0,0-.543.871.821.821,0,0,0,.234.781,3.446,3.446,0,0,0,1.375.492,5.217,5.217,0,0,1,2.227.93,1.632,1.632,0,0,1,.586,1.57,2.62,2.62,0,0,1-1.164,1.855,4.265,4.265,0,0,1-2.484.691,3.283,3.283,0,0,1-2.395-.828,2.033,2.033,0,0,1-.652-1.906l.016-.047h1.477a1.245,1.245,0,0,0,.445,1.2,2.1,2.1,0,0,0,1.281.379,2.3,2.3,0,0,0,1.313-.352A1.3,1.3,0,0,0,160.266-2.273Z" transform="translate(-5404 -7550)" fill="#fff"/>
    <path id="Trazado_877198" data-name="Trazado 877198" d="M0,0H333V39H0Z" transform="translate(-5491 -7358)" fill="#472c79"/>
    <path id="Trazado_877197" data-name="Trazado 877197" d="M0,0H333V39H0Z" transform="translate(-5491 -7314)" fill="#1f47ad"/>
    <path id="Trazado_877200" data-name="Trazado 877200" d="M0,0H333V39H0Z" transform="translate(-5491 -7402)" fill="#22d9c2"/>
    <path id="Trazado_877202" data-name="Trazado 877202" d="M.7,0l1.7-11.375H5.984A4.154,4.154,0,0,1,9.32-9.988a4.208,4.208,0,0,1,.867,3.527L9.953-4.906A5.675,5.675,0,0,1,8.074-1.324,5.6,5.6,0,0,1,4.281,0ZM3.766-10.164,2.422-1.2H4.461A3.649,3.649,0,0,0,7.074-2.254a4.488,4.488,0,0,0,1.34-2.652l.234-1.57a3.476,3.476,0,0,0-.5-2.676A2.725,2.725,0,0,0,5.8-10.164ZM11.617-4.3A5.387,5.387,0,0,1,13.09-7.43a4,4,0,0,1,2.941-1.18A2.942,2.942,0,0,1,18.59-7.387a4.1,4.1,0,0,1,.6,3.082l-.031.172A5.4,5.4,0,0,1,17.68-1,4.018,4.018,0,0,1,14.734.164a2.945,2.945,0,0,1-2.559-1.219,4.063,4.063,0,0,1-.59-3.078Zm1.508.172a3.681,3.681,0,0,0,.227,2.242,1.6,1.6,0,0,0,1.563.852,2.211,2.211,0,0,0,1.777-.887,4.5,4.5,0,0,0,.926-2.207l.031-.172a3.683,3.683,0,0,0-.238-2.234A1.6,1.6,0,0,0,15.852-7.4a2.212,2.212,0,0,0-1.785.895,4.425,4.425,0,0,0-.91,2.2ZM23.938-1.039a2.076,2.076,0,0,0,1.293-.477,1.8,1.8,0,0,0,.723-1.156h1.391l.016.047A2.885,2.885,0,0,1,26.137-.66a3.838,3.838,0,0,1-2.379.824A2.837,2.837,0,0,1,21.23-1.059a4.112,4.112,0,0,1-.559-3l.047-.328a5.417,5.417,0,0,1,1.422-3.035,3.89,3.89,0,0,1,2.93-1.184,2.769,2.769,0,0,1,2.164.883,2.407,2.407,0,0,1,.57,2.148l-.016.039H26.383a1.676,1.676,0,0,0-.3-1.332,1.429,1.429,0,0,0-1.2-.527,2.118,2.118,0,0,0-1.766.895,4.517,4.517,0,0,0-.859,2.113l-.047.328a3.852,3.852,0,0,0,.18,2.168A1.514,1.514,0,0,0,23.938-1.039ZM31.727-3.9h-.8L30.344,0H28.8l1.828-12.187h1.539L31.109-5.125h.773l3.039-3.328H36.7l.023.047L33.117-4.555,35.766,0h-1.82ZM40.32.164a3.069,3.069,0,0,1-2.629-1.18,3.934,3.934,0,0,1-.6-3.047l.055-.344a5.061,5.061,0,0,1,1.488-3.047,3.89,3.89,0,0,1,2.754-1.156,2.624,2.624,0,0,1,2.352,1.07A3.846,3.846,0,0,1,44.2-4.75l-.117.813H38.617a3.355,3.355,0,0,0,.266,2.121,1.7,1.7,0,0,0,1.617.777,4.177,4.177,0,0,0,1.395-.227,3.661,3.661,0,0,0,1.113-.609l.453,1a4.447,4.447,0,0,1-1.3.738A5.139,5.139,0,0,1,40.32.164ZM41.211-7.4a1.948,1.948,0,0,0-1.4.625,3.561,3.561,0,0,0-.9,1.578l.016.047h3.8l.016-.125a2.257,2.257,0,0,0-.219-1.535A1.41,1.41,0,0,0,41.211-7.4Zm9.07.3L49.5-7.141a1.9,1.9,0,0,0-1.062.3,2.49,2.49,0,0,0-.781.848L46.758,0H45.219l1.266-8.453h1.375l-.031,1.2a3.552,3.552,0,0,1,1.031-1,2.384,2.384,0,0,1,1.273-.355,1.923,1.923,0,0,1,.324.027,1.787,1.787,0,0,1,.254.059Zm11.727,1.82H57.336L56.727-1.2H62.2L62.016,0H55.008l1.7-11.375h6.922l-.18,1.211H58.063l-.547,3.68H62.2ZM66.2-7.242A3.653,3.653,0,0,1,67.4-8.254a3.241,3.241,0,0,1,1.5-.355,2.384,2.384,0,0,1,1.973.809,3.111,3.111,0,0,1,.4,2.465L70.484,0H68.945l.8-5.3a2.11,2.11,0,0,0-.2-1.605,1.585,1.585,0,0,0-1.289-.449,2.518,2.518,0,0,0-1.234.3,2.729,2.729,0,0,0-.922.832L65.164,0H63.625l1.266-8.453h1.375ZM73.055-4.07A6.411,6.411,0,0,1,74.414-7.4a3.326,3.326,0,0,1,2.625-1.211,2.589,2.589,0,0,1,1.352.336,2.364,2.364,0,0,1,.891.969l.359-1.148h1.227L79.594.047a3.807,3.807,0,0,1-1.316,2.527,4.483,4.483,0,0,1-2.863.84,5.369,5.369,0,0,1-1.281-.172,4.632,4.632,0,0,1-1.187-.453l.414-1.2a3.921,3.921,0,0,0,1.02.379,5.216,5.216,0,0,0,1.215.145,2.536,2.536,0,0,0,1.691-.52,2.421,2.421,0,0,0,.77-1.551L78.2-.914a3.351,3.351,0,0,1-1.113.8,3.366,3.366,0,0,1-1.371.273A2.466,2.466,0,0,1,73.492-.969a4.13,4.13,0,0,1-.461-2.937Zm1.516.164a3.283,3.283,0,0,0,.207,2.07,1.568,1.568,0,0,0,1.512.75,2.223,2.223,0,0,0,1.2-.324,3.092,3.092,0,0,0,.922-.91l.586-3.867a2.008,2.008,0,0,0-.652-.855,1.793,1.793,0,0,0-1.1-.316,2.1,2.1,0,0,0-1.746.93,5.147,5.147,0,0,0-.9,2.359ZM83.477,0H81.938L83.2-8.453h1.539ZM85.07-10.617H83.531l.234-1.57H85.3Zm3.344,3.375a3.653,3.653,0,0,1,1.207-1.012,3.241,3.241,0,0,1,1.5-.355A2.384,2.384,0,0,1,93.1-7.8a3.111,3.111,0,0,1,.4,2.465L92.7,0H91.164l.8-5.3a2.11,2.11,0,0,0-.2-1.605,1.585,1.585,0,0,0-1.289-.449,2.518,2.518,0,0,0-1.234.3,2.729,2.729,0,0,0-.922.832L87.383,0H85.844l1.266-8.453h1.375Zm10,7.406a3.069,3.069,0,0,1-2.629-1.18,3.934,3.934,0,0,1-.6-3.047l.055-.344A5.061,5.061,0,0,1,96.73-7.453a3.89,3.89,0,0,1,2.754-1.156,2.624,2.624,0,0,1,2.352,1.07A3.846,3.846,0,0,1,102.3-4.75l-.117.813H96.711a3.355,3.355,0,0,0,.266,2.121,1.7,1.7,0,0,0,1.617.777,4.177,4.177,0,0,0,1.395-.227,3.661,3.661,0,0,0,1.113-.609l.453,1a4.447,4.447,0,0,1-1.3.738A5.139,5.139,0,0,1,98.414.164ZM99.3-7.4a1.948,1.948,0,0,0-1.4.625A3.561,3.561,0,0,0,97-5.2l.016.047h3.8l.016-.125a2.256,2.256,0,0,0-.219-1.535A1.41,1.41,0,0,0,99.3-7.4Z" transform="translate(-5374 -7376)" fill="#12263f"/>
    <path id="Trazado_877199" data-name="Trazado 877199" d="M7.391-2.867a1.711,1.711,0,0,0-.555-1.3,4.62,4.62,0,0,0-1.953-.891A6.5,6.5,0,0,1,2.176-6.32a2.655,2.655,0,0,1-.973-2.1A2.8,2.8,0,0,1,2.25-10.648a4.05,4.05,0,0,1,2.719-.891,3.971,3.971,0,0,1,2.863,1.02A3.088,3.088,0,0,1,8.867-8.141l-.023.047H7.375A2.1,2.1,0,0,0,6.7-9.7a2.431,2.431,0,0,0-1.73-.633A2.37,2.37,0,0,0,3.316-9.8a1.754,1.754,0,0,0-.574,1.359,1.518,1.518,0,0,0,.629,1.238,5.8,5.8,0,0,0,2.043.871A5.8,5.8,0,0,1,8.031-5.023a2.857,2.857,0,0,1,.9,2.141A2.657,2.657,0,0,1,7.848-.672,4.491,4.491,0,0,1,5.023.164a4.8,4.8,0,0,1-2.91-.922A2.81,2.81,0,0,1,.891-3.227l.016-.047H2.375a1.912,1.912,0,0,0,.813,1.652,3.076,3.076,0,0,0,1.836.582,2.761,2.761,0,0,0,1.73-.492A1.6,1.6,0,0,0,7.391-2.867ZM12.563,0H11.023V-8.453h1.539Zm0-10.617H11.023v-1.57h1.539Zm7.281,8.344a1.026,1.026,0,0,0-.387-.828,3.732,3.732,0,0,0-1.465-.562,6.146,6.146,0,0,1-2.293-.9,1.814,1.814,0,0,1-.8-1.547,2.229,2.229,0,0,1,.879-1.766,3.433,3.433,0,0,1,2.277-.734,3.4,3.4,0,0,1,2.328.781,2.239,2.239,0,0,1,.852,1.82l-.016.047H19.75a1.331,1.331,0,0,0-.48-.992A1.717,1.717,0,0,0,18.055-7.4a1.751,1.751,0,0,0-1.215.367,1.146,1.146,0,0,0-.4.875.927.927,0,0,0,.348.773,3.848,3.848,0,0,0,1.434.5,6.058,6.058,0,0,1,2.359.93,1.872,1.872,0,0,1,.8,1.57,2.226,2.226,0,0,1-.91,1.836,3.754,3.754,0,0,1-2.379.711,3.715,3.715,0,0,1-2.547-.82,2.341,2.341,0,0,1-.883-1.914l.016-.047h1.469a1.424,1.424,0,0,0,.609,1.2,2.358,2.358,0,0,0,1.336.379,2.1,2.1,0,0,0,1.285-.348A1.063,1.063,0,0,0,19.844-2.273Zm5.594-8.219v2.039h1.6v1.141h-1.6V-2.18a1.149,1.149,0,0,0,.246.836.89.89,0,0,0,.652.242,1.429,1.429,0,0,0,.3-.035,2.2,2.2,0,0,0,.273-.074l.211,1.055a1.36,1.36,0,0,1-.508.23,2.562,2.562,0,0,1-.664.09A1.993,1.993,0,0,1,24.453-.4,2.46,2.46,0,0,1,23.9-2.18V-7.312H22.555V-8.453H23.9v-2.039ZM32.188.164A3.576,3.576,0,0,1,29.348-1a4.48,4.48,0,0,1-1.02-3.062v-.344a4.386,4.386,0,0,1,1.051-3.012,3.3,3.3,0,0,1,2.566-1.191,3.067,3.067,0,0,1,2.543,1.055,4.345,4.345,0,0,1,.848,2.8v.813H29.93l-.023.039a3.494,3.494,0,0,0,.563,2.066,1.965,1.965,0,0,0,1.719.793,3.872,3.872,0,0,0,1.371-.223,3.061,3.061,0,0,0,1.012-.613l.6,1a3.7,3.7,0,0,1-1.2.738A4.762,4.762,0,0,1,32.188.164ZM31.945-7.4a1.673,1.673,0,0,0-1.332.621,2.938,2.938,0,0,0-.645,1.59l.016.039H33.8v-.125A2.462,2.462,0,0,0,33.344-6.8,1.638,1.638,0,0,0,31.945-7.4Zm6.492-1.055.109,1.109A2.871,2.871,0,0,1,39.6-8.277a3.158,3.158,0,0,1,1.48-.332,2.615,2.615,0,0,1,1.449.391,2.363,2.363,0,0,1,.91,1.172A3.162,3.162,0,0,1,44.5-8.191a2.769,2.769,0,0,1,1.527-.418,2.531,2.531,0,0,1,2.039.887,4.051,4.051,0,0,1,.75,2.668V0H47.273V-5.07a2.81,2.81,0,0,0-.43-1.77,1.567,1.567,0,0,0-1.281-.52,1.631,1.631,0,0,0-1.277.547,2.381,2.381,0,0,0-.574,1.383V0H42.164V-5.07a2.772,2.772,0,0,0-.441-1.738,1.532,1.532,0,0,0-1.27-.551A2.115,2.115,0,0,0,39.3-7.07a1.867,1.867,0,0,0-.7.813V0H37.063V-8.453ZM56.242,0q-.078-.383-.121-.676a4.96,4.96,0,0,1-.051-.59,3.589,3.589,0,0,1-1.121,1.02,2.867,2.867,0,0,1-1.488.41,2.763,2.763,0,0,1-2.012-.676,2.486,2.486,0,0,1-.691-1.863,2.183,2.183,0,0,1,.98-1.895,4.579,4.579,0,0,1,2.66-.684H56.07v-.836a1.551,1.551,0,0,0-.453-1.176A1.779,1.779,0,0,0,54.336-7.4a1.859,1.859,0,0,0-1.211.375,1.125,1.125,0,0,0-.461.9L51.2-6.109l-.016-.047a2.023,2.023,0,0,1,.863-1.687,3.578,3.578,0,0,1,2.371-.766,3.49,3.49,0,0,1,2.313.73,2.588,2.588,0,0,1,.875,2.105V-1.7a7.923,7.923,0,0,0,.047.875A4.5,4.5,0,0,0,57.828,0ZM53.688-1.125a2.739,2.739,0,0,0,1.508-.43,2.042,2.042,0,0,0,.875-.984V-3.914H54.344a2.24,2.24,0,0,0-1.488.469,1.4,1.4,0,0,0-.559,1.1,1.159,1.159,0,0,0,.352.891A1.472,1.472,0,0,0,53.688-1.125ZM72.719-4.672a4.853,4.853,0,0,1-1.293,3.461A4.4,4.4,0,0,1,68.07.164a4.167,4.167,0,0,1-3.238-1.375,4.959,4.959,0,0,1-1.246-3.461V-6.7a4.977,4.977,0,0,1,1.246-3.461,4.156,4.156,0,0,1,3.238-1.383,4.39,4.39,0,0,1,3.355,1.379A4.867,4.867,0,0,1,72.719-6.7ZM71.18-6.711a3.837,3.837,0,0,0-.844-2.562,2.813,2.813,0,0,0-2.266-1,2.606,2.606,0,0,0-2.145,1,3.972,3.972,0,0,0-.8,2.563v2.039a4,4,0,0,0,.8,2.578,2.606,2.606,0,0,0,2.145,1,2.815,2.815,0,0,0,2.27-1,3.869,3.869,0,0,0,.84-2.582Zm10.75,2.8a4.659,4.659,0,0,1-.875,2.949A2.893,2.893,0,0,1,78.641.164,3.354,3.354,0,0,1,77.27-.1a2.622,2.622,0,0,1-1-.785V3.25H74.727v-11.7h1.18l.242,1.094a2.792,2.792,0,0,1,1.031-.93,3.078,3.078,0,0,1,1.438-.32,2.809,2.809,0,0,1,2.441,1.246A5.638,5.638,0,0,1,81.93-4.07ZM80.391-4.07a4.467,4.467,0,0,0-.566-2.363,1.835,1.835,0,0,0-1.668-.926,2.054,2.054,0,0,0-1.133.3,2.25,2.25,0,0,0-.758.824v4.086a2.186,2.186,0,0,0,.758.816,2.126,2.126,0,0,0,1.148.293,1.894,1.894,0,0,0,1.656-.8,3.516,3.516,0,0,0,.563-2.066ZM87.32.164A3.576,3.576,0,0,1,84.48-1a4.48,4.48,0,0,1-1.02-3.062v-.344a4.386,4.386,0,0,1,1.051-3.012,3.3,3.3,0,0,1,2.566-1.191,3.067,3.067,0,0,1,2.543,1.055,4.345,4.345,0,0,1,.848,2.8v.813H85.063l-.023.039A3.494,3.494,0,0,0,85.6-1.832a1.965,1.965,0,0,0,1.719.793,3.872,3.872,0,0,0,1.371-.223A3.061,3.061,0,0,0,89.7-1.875l.6,1a3.7,3.7,0,0,1-1.2.738A4.762,4.762,0,0,1,87.32.164ZM87.078-7.4a1.673,1.673,0,0,0-1.332.621,2.938,2.938,0,0,0-.645,1.59l.016.039H88.93v-.125A2.462,2.462,0,0,0,88.477-6.8,1.638,1.638,0,0,0,87.078-7.4Zm9.117.3-.789-.047a1.762,1.762,0,0,0-1.027.289,1.854,1.854,0,0,0-.645.813V0H92.2V-8.453H93.57l.148,1.234a2.934,2.934,0,0,1,.887-1.023,2.073,2.073,0,0,1,1.215-.367,1.9,1.9,0,0,1,.328.027,2.175,2.175,0,0,1,.258.059ZM102.992,0q-.078-.383-.121-.676a4.96,4.96,0,0,1-.051-.59A3.589,3.589,0,0,1,101.7-.246a2.867,2.867,0,0,1-1.488.41A2.763,2.763,0,0,1,98.2-.512a2.486,2.486,0,0,1-.691-1.863,2.183,2.183,0,0,1,.98-1.895,4.579,4.579,0,0,1,2.66-.684h1.672v-.836a1.551,1.551,0,0,0-.453-1.176,1.779,1.779,0,0,0-1.281-.434,1.859,1.859,0,0,0-1.211.375,1.125,1.125,0,0,0-.461.9l-1.461.016-.016-.047A2.023,2.023,0,0,1,98.8-7.844a3.578,3.578,0,0,1,2.371-.766,3.49,3.49,0,0,1,2.313.73,2.588,2.588,0,0,1,.875,2.105V-1.7a7.923,7.923,0,0,0,.047.875,4.5,4.5,0,0,0,.172.828Zm-2.555-1.125a2.739,2.739,0,0,0,1.508-.43,2.042,2.042,0,0,0,.875-.984V-3.914h-1.727a2.24,2.24,0,0,0-1.488.469,1.4,1.4,0,0,0-.559,1.1,1.159,1.159,0,0,0,.352.891A1.472,1.472,0,0,0,100.438-1.125Zm8.3-9.367v2.039h1.6v1.141h-1.6V-2.18a1.149,1.149,0,0,0,.246.836.89.89,0,0,0,.652.242,1.43,1.43,0,0,0,.3-.035,2.2,2.2,0,0,0,.273-.074l.211,1.055a1.36,1.36,0,0,1-.508.23,2.562,2.562,0,0,1-.664.09A1.993,1.993,0,0,1,107.75-.4,2.46,2.46,0,0,1,107.2-2.18V-7.312h-1.344V-8.453H107.2v-2.039ZM113.648,0h-1.539V-8.453h1.539Zm0-10.617h-1.539v-1.57h1.539Zm5.188,8.125.133.594h.047l.148-.594,1.945-5.961h1.57L119.57,0h-1.164l-3.148-8.453h1.578Zm4.75-1.812a4.654,4.654,0,0,1,1.016-3.09,3.406,3.406,0,0,1,2.758-1.215A3.439,3.439,0,0,1,130.137-7.4a4.639,4.639,0,0,1,1.02,3.094v.172a4.631,4.631,0,0,1-1.016,3.094,3.429,3.429,0,0,1-2.766,1.2,3.436,3.436,0,0,1-2.77-1.207,4.623,4.623,0,0,1-1.02-3.09Zm1.539.172a4.009,4.009,0,0,0,.566,2.219,1.875,1.875,0,0,0,1.684.875,1.87,1.87,0,0,0,1.672-.875,3.988,3.988,0,0,0,.57-2.219V-4.3a3.976,3.976,0,0,0-.574-2.211,1.882,1.882,0,0,0-1.684-.883,1.856,1.856,0,0,0-1.668.883,4.018,4.018,0,0,0-.566,2.211ZM145.2,0h-1.539l.75-5.023h-5.523L138.141,0H136.6l1.7-11.375h1.539l-.773,5.141h5.523l.773-5.141h1.539Zm2.734-4.3A5.387,5.387,0,0,1,149.41-7.43a4,4,0,0,1,2.941-1.18,2.942,2.942,0,0,1,2.559,1.223,4.1,4.1,0,0,1,.6,3.082l-.031.172A5.4,5.4,0,0,1,154-1,4.018,4.018,0,0,1,151.055.164,2.945,2.945,0,0,1,148.5-1.055a4.063,4.063,0,0,1-.59-3.078Zm1.508.172a3.681,3.681,0,0,0,.227,2.242,1.6,1.6,0,0,0,1.563.852,2.211,2.211,0,0,0,1.777-.887,4.5,4.5,0,0,0,.926-2.207l.031-.172a3.683,3.683,0,0,0-.238-2.234,1.6,1.6,0,0,0-1.559-.859,2.212,2.212,0,0,0-1.785.895,4.425,4.425,0,0,0-.91,2.2Zm12.57,1.859a.908.908,0,0,0-.266-.836,3.27,3.27,0,0,0-1.391-.555,5.344,5.344,0,0,1-2.176-.9,1.562,1.562,0,0,1-.582-1.547A2.6,2.6,0,0,1,158.723-7.9a3.935,3.935,0,0,1,2.387-.711,3.006,3.006,0,0,1,2.188.789,1.943,1.943,0,0,1,.633,1.813l-.016.047h-1.477a1.162,1.162,0,0,0-.336-1,1.515,1.515,0,0,0-1.156-.437,1.974,1.974,0,0,0-1.254.371,1.334,1.334,0,0,0-.543.871.821.821,0,0,0,.234.781,3.446,3.446,0,0,0,1.375.492,5.217,5.217,0,0,1,2.227.93,1.632,1.632,0,0,1,.586,1.57,2.62,2.62,0,0,1-1.164,1.855,4.265,4.265,0,0,1-2.484.691,3.283,3.283,0,0,1-2.395-.828,2.033,2.033,0,0,1-.652-1.906l.016-.047h1.477a1.245,1.245,0,0,0,.445,1.2,2.1,2.1,0,0,0,1.281.379,2.3,2.3,0,0,0,1.313-.352A1.3,1.3,0,0,0,162.016-2.273Zm6.8-8.219-.3,2.039h1.6l-.172,1.141h-1.6l-.766,5.133a1.052,1.052,0,0,0,.113.848.793.793,0,0,0,.621.23,1.571,1.571,0,0,0,.3-.035,2.1,2.1,0,0,0,.285-.074l.055,1.055a1.634,1.634,0,0,1-.543.23,2.7,2.7,0,0,1-.676.09,1.735,1.735,0,0,1-1.395-.57,2.153,2.153,0,0,1-.3-1.773l.766-5.133h-1.344l.172-1.141h1.344l.3-2.039Z" transform="translate(-5408 -7332)" fill="#fff"/>
    <path id="Trazado_877201" data-name="Trazado 877201" d="M9.3,0H7.766l.75-5.023H2.992L2.242,0H.7l1.7-11.375H3.945L3.172-6.234H8.7l.773-5.141h1.539Zm7.641,0q-.016-.438-.016-.707a4.986,4.986,0,0,1,.031-.551A4.564,4.564,0,0,1,15.684-.246a3.193,3.193,0,0,1-1.543.41A2.41,2.41,0,0,1,12.254-.52a2.155,2.155,0,0,1-.434-1.855,2.584,2.584,0,0,1,1.25-1.914,5.194,5.194,0,0,1,2.773-.664h1.672l.125-.836a1.369,1.369,0,0,0-.27-1.191A1.593,1.593,0,0,0,16.148-7.4a2.134,2.134,0,0,0-1.25.375,1.3,1.3,0,0,0-.609.9l-1.469.016-.008-.047A2.422,2.422,0,0,1,13.93-7.863a4.1,4.1,0,0,1,2.484-.746,3.053,3.053,0,0,1,2.172.738,2.258,2.258,0,0,1,.594,2.1L18.57-1.7a6.686,6.686,0,0,0-.09.887A4.511,4.511,0,0,0,18.531,0ZM14.563-1.125a3.032,3.032,0,0,0,1.547-.437,2.613,2.613,0,0,0,1.039-.984l.211-1.367H15.633a2.54,2.54,0,0,0-1.547.477,1.651,1.651,0,0,0-.734,1.094,1.011,1.011,0,0,0,.207.9A1.341,1.341,0,0,0,14.563-1.125ZM25.609-7.094l-.781-.047a1.9,1.9,0,0,0-1.062.3,2.49,2.49,0,0,0-.781.848L22.086,0H20.547l1.266-8.453h1.375l-.031,1.2a3.552,3.552,0,0,1,1.031-1,2.384,2.384,0,0,1,1.273-.355,1.923,1.923,0,0,1,.324.027,1.787,1.787,0,0,1,.254.059Zm.648,3.023A6.411,6.411,0,0,1,27.617-7.4,3.334,3.334,0,0,1,30.25-8.609a2.617,2.617,0,0,1,1.262.289,2.29,2.29,0,0,1,.871.836l.7-4.7h1.539L32.8,0h-1.18l-.07-1.07a3.432,3.432,0,0,1-1.164.922,3.355,3.355,0,0,1-1.461.313A2.473,2.473,0,0,1,26.7-.969a4.13,4.13,0,0,1-.461-2.937Zm1.516.164a3.283,3.283,0,0,0,.207,2.07,1.575,1.575,0,0,0,1.52.75,2.229,2.229,0,0,0,1.188-.32A3.028,3.028,0,0,0,31.6-2.3l.586-3.914a1.906,1.906,0,0,0-.645-.84,1.811,1.811,0,0,0-1.09-.309,2.105,2.105,0,0,0-1.754.926,5.128,5.128,0,0,0-.9,2.363Zm9.945.828L37.75-2l.039.008.375-1.086,2.492-5.375h1.234l.891,5.375.039,1.211.047.008.43-1.219,2.055-5.375h1.609L43.242,0H42l-.9-5.148-.117-1.336-.047-.008-.5,1.344L38.023,0H36.781L35.594-8.453h1.6ZM52.4,0q-.016-.438-.016-.707a4.987,4.987,0,0,1,.031-.551A4.564,4.564,0,0,1,51.137-.246a3.193,3.193,0,0,1-1.543.41A2.41,2.41,0,0,1,47.707-.52a2.155,2.155,0,0,1-.434-1.855,2.584,2.584,0,0,1,1.25-1.914A5.194,5.194,0,0,1,51.3-4.953h1.672l.125-.836a1.369,1.369,0,0,0-.27-1.191A1.593,1.593,0,0,0,51.6-7.4a2.134,2.134,0,0,0-1.25.375,1.3,1.3,0,0,0-.609.9l-1.469.016-.008-.047a2.422,2.422,0,0,1,1.117-1.707,4.1,4.1,0,0,1,2.484-.746,3.053,3.053,0,0,1,2.172.738,2.258,2.258,0,0,1,.594,2.1L54.023-1.7a6.686,6.686,0,0,0-.09.887A4.511,4.511,0,0,0,53.984,0ZM50.016-1.125a3.032,3.032,0,0,0,1.547-.437A2.613,2.613,0,0,0,52.6-2.547l.211-1.367H51.086a2.54,2.54,0,0,0-1.547.477A1.651,1.651,0,0,0,48.8-2.344a1.011,1.011,0,0,0,.207.9A1.341,1.341,0,0,0,50.016-1.125ZM61.063-7.094l-.781-.047a1.9,1.9,0,0,0-1.062.3,2.49,2.49,0,0,0-.781.848L57.539,0H56l1.266-8.453h1.375l-.031,1.2a3.552,3.552,0,0,1,1.031-1,2.384,2.384,0,0,1,1.273-.355,1.923,1.923,0,0,1,.324.027,1.787,1.787,0,0,1,.254.059ZM64.93.164A3.069,3.069,0,0,1,62.3-1.016a3.934,3.934,0,0,1-.6-3.047l.055-.344a5.061,5.061,0,0,1,1.488-3.047A3.89,3.89,0,0,1,66-8.609a2.624,2.624,0,0,1,2.352,1.07,3.846,3.846,0,0,1,.461,2.789l-.117.813H63.227a3.355,3.355,0,0,0,.266,2.121,1.7,1.7,0,0,0,1.617.777A4.177,4.177,0,0,0,66.5-1.266a3.661,3.661,0,0,0,1.113-.609l.453,1a4.447,4.447,0,0,1-1.3.738A5.139,5.139,0,0,1,64.93.164ZM65.82-7.4a1.948,1.948,0,0,0-1.4.625,3.561,3.561,0,0,0-.9,1.578l.016.047h3.8l.016-.125a2.256,2.256,0,0,0-.219-1.535A1.41,1.41,0,0,0,65.82-7.4Z" transform="translate(-5358 -7288)" fill="#fff"/>
    <g id="Grupo_1100557" data-name="Grupo 1100557" transform="translate(-6115 -10931)">
      <path id="Trazado_876735-2" data-name="Trazado 876735" d="M19.5,0A19.5,19.5,0,1,1,0,19.5,19.5,19.5,0,0,1,19.5,0Z" transform="translate(624 3355)" fill="#f0c518"/>
      <g id="layer1-2" data-name="layer1" transform="translate(632.042 3082.405)">
        <path id="path3032-2" data-name="path3032" d="M5.1,280.6a.381.381,0,0,0-.379.383v3.429H1.672a1.149,1.149,0,0,0-1.143,1.143v.762a.381.381,0,1,0,.762,0v-.762a.372.372,0,0,1,.381-.381H4.721v.762H2.434a.381.381,0,0,0-.381.381v10.667a.381.381,0,0,0,.381.381H21.483a.381.381,0,0,0,.381-.381V286.311a.381.381,0,0,0-.381-.381H19.2v-.762h3.046a.372.372,0,0,1,.381.381v13.715a.372.372,0,0,1-.381.381H1.672a.372.372,0,0,1-.381-.381V289.74a.381.381,0,1,0-.762,0v9.524a1.149,1.149,0,0,0,1.143,1.143H9.626a5,5,0,0,1-1.263,2.285H7.386a.381.381,0,0,0,0,.762h9.143a.381.381,0,0,0,0-.762h-.975a4.988,4.988,0,0,1-1.276-2.285h7.966a1.149,1.149,0,0,0,1.143-1.143V285.549a1.149,1.149,0,0,0-1.143-1.143H19.2v-3.429a.381.381,0,0,0-.382-.383H15.388a.381.381,0,0,0-.383.383v1.9H12.339v-.762a.383.383,0,0,0-.362-.379H8.911v-.763a.381.381,0,0,0-.382-.383Zm.382.763H8.149v1.524H5.483Zm10.285,0h2.669v8.384H15.767ZM8.911,282.5h2.666v7.239H8.911Zm-3.428,1.142H8.149v.762H5.483Zm6.856,0H15v1.525H12.339Zm-6.856,1.524H8.149v8.381H5.483Zm6.856.763H15v.759H12.339Zm-9.524.76H4.721v6.857H3.959a.381.381,0,0,0-.383.382v1.525a.381.381,0,0,0,.383.38h16a.381.381,0,0,0,.382-.38v-1.525a.381.381,0,0,0-.382-.383H19.2v-6.857h1.9V296.6H2.815ZM.9,287.449a.381.381,0,0,0-.375.386v.381a.381.381,0,1,0,.762,0v-.381a.381.381,0,0,0-.387-.386Zm11.434,0H15v6.1H12.339ZM8.911,290.5h2.666v.759H8.911Zm6.857,0h2.669v.759H15.767Zm-6.857,1.521h2.666v1.525H8.911Zm6.857,0h2.669v1.525H15.767ZM4.338,294.311h15.24v.763H4.338Zm6.857,3.81a.381.381,0,0,0,0,.762H12.72a.381.381,0,0,0,0-.762Zm-.786,2.287h3.1a4.894,4.894,0,0,0,1.056,2.285H9.349a4.807,4.807,0,0,0,1.061-2.285Z" fill="#3a1d71"/>
      </g>
    </g>
  </g>
</svg>
